<svg xmlns="http://www.w3.org/2000/svg" viewBox="0 0 1120 610" width="100%" style="height:auto" font-family="Inter,Arial,sans-serif"><rect width="1120" height="610" fill="#ffffff"/><text x="48" y="44" font-size="28" font-weight="700" fill="#111827">Sonnet fuser climbs, Haiku barely moves</text><text x="48" y="73" font-size="16" fill="#6b7280">23 shared tasks, same Sonnet-4.6 grader. Whiskers = 95% bootstrap CI over tasks (B=20k).</text><line x1="92.0" y1="488.8" x2="840.0" y2="488.8" stroke="#eef0f2" stroke-width="1"/><text x="80" y="493.8" font-size="14" text-anchor="end" fill="#6b7280">50</text><line x1="92.0" y1="434.0" x2="840.0" y2="434.0" stroke="#eef0f2" stroke-width="1"/><text x="80" y="439.0" font-size="14" text-anchor="end" fill="#6b7280">55</text><line x1="92.0" y1="379.2" x2="840.0" y2="379.2" stroke="#eef0f2" stroke-width="1"/><text x="80" y="384.2" font-size="14" text-anchor="end" fill="#6b7280">60</text><line x1="92.0" y1="324.4" x2="840.0" y2="324.4" stroke="#eef0f2" stroke-width="1"/><text x="80" y="329.4" font-size="14" text-anchor="end" fill="#6b7280">65</text><line x1="92.0" y1="269.6" x2="840.0" y2="269.6" stroke="#eef0f2" stroke-width="1"/><text x="80" y="274.6" font-size="14" text-anchor="end" fill="#6b7280">70</text><line x1="92.0" y1="214.9" x2="840.0" y2="214.9" stroke="#eef0f2" stroke-width="1"/><text x="80" y="219.9" font-size="14" text-anchor="end" fill="#6b7280">75</text><line x1="92.0" y1="160.1" x2="840.0" y2="160.1" stroke="#eef0f2" stroke-width="1"/><text x="80" y="165.1" font-size="14" text-anchor="end" fill="#6b7280">80</text><text x="92.0" y="548.0" font-size="15" text-anchor="middle" fill="#6b7280">1</text><text x="175.1" y="548.0" font-size="15" text-anchor="middle" fill="#6b7280">2</text><text x="258.2" y="548.0" font-size="15" text-anchor="middle" fill="#6b7280">3</text><text x="341.3" y="548.0" font-size="15" text-anchor="middle" fill="#6b7280">4</text><text x="424.4" y="548.0" font-size="15" text-anchor="middle" fill="#6b7280">5</text><text x="507.6" y="548.0" font-size="15" text-anchor="middle" fill="#6b7280">6</text><text x="590.7" y="548.0" font-size="15" text-anchor="middle" fill="#6b7280">7</text><text x="673.8" y="548.0" font-size="15" text-anchor="middle" fill="#6b7280">8</text><text x="756.9" y="548.0" font-size="15" text-anchor="middle" fill="#6b7280">9</text><text x="840.0" y="548.0" font-size="15" text-anchor="middle" fill="#6b7280">10</text><text x="466.0" y="578.0" font-size="16" text-anchor="middle" fill="#111827">number of runs fused</text><line x1="88.0" y1="450.8" x2="88.0" y2="321.4" stroke="#D85A30" stroke-width="1.6" stroke-opacity="0.55"/><line x1="84.0" y1="450.8" x2="92.0" y2="450.8" stroke="#D85A30" stroke-width="1.6" stroke-opacity="0.55"/><line x1="84.0" y1="321.4" x2="92.0" y2="321.4" stroke="#D85A30" stroke-width="1.6" stroke-opacity="0.55"/><line x1="171.1" y1="484.1" x2="171.1" y2="345.3" stroke="#D85A30" stroke-width="1.6" stroke-opacity="0.55"/><line x1="167.1" y1="484.1" x2="175.1" y2="484.1" stroke="#D85A30" stroke-width="1.6" stroke-opacity="0.55"/><line x1="167.1" y1="345.3" x2="175.1" y2="345.3" stroke="#D85A30" stroke-width="1.6" stroke-opacity="0.55"/><line x1="254.2" y1="471.7" x2="254.2" y2="323.8" stroke="#D85A30" stroke-width="1.6" stroke-opacity="0.55"/><line x1="250.2" y1="471.7" x2="258.2" y2="471.7" stroke="#D85A30" stroke-width="1.6" stroke-opacity="0.55"/><line x1="250.2" y1="323.8" x2="258.2" y2="323.8" stroke="#D85A30" stroke-width="1.6" stroke-opacity="0.55"/><line x1="337.3" y1="420.3" x2="337.3" y2="267.9" stroke="#D85A30" stroke-width="1.6" stroke-opacity="0.55"/><line x1="333.3" y1="420.3" x2="341.3" y2="420.3" stroke="#D85A30" stroke-width="1.6" stroke-opacity="0.55"/><line x1="333.3" y1="267.9" x2="341.3" y2="267.9" stroke="#D85A30" stroke-width="1.6" stroke-opacity="0.55"/><line x1="420.4" y1="456.2" x2="420.4" y2="311.0" stroke="#D85A30" stroke-width="1.6" stroke-opacity="0.55"/><line x1="416.4" y1="456.2" x2="424.4" y2="456.2" stroke="#D85A30" stroke-width="1.6" stroke-opacity="0.55"/><line x1="416.4" y1="311.0" x2="424.4" y2="311.0" stroke="#D85A30" stroke-width="1.6" stroke-opacity="0.55"/><line x1="503.6" y1="446.3" x2="503.6" y2="292.9" stroke="#D85A30" stroke-width="1.6" stroke-opacity="0.55"/><line x1="499.6" y1="446.3" x2="507.6" y2="446.3" stroke="#D85A30" stroke-width="1.6" stroke-opacity="0.55"/><line x1="499.6" y1="292.9" x2="507.6" y2="292.9" stroke="#D85A30" stroke-width="1.6" stroke-opacity="0.55"/><line x1="586.7" y1="433.3" x2="586.7" y2="275.6" stroke="#D85A30" stroke-width="1.6" stroke-opacity="0.55"/><line x1="582.7" y1="433.3" x2="590.7" y2="433.3" stroke="#D85A30" stroke-width="1.6" stroke-opacity="0.55"/><line x1="582.7" y1="275.6" x2="590.7" y2="275.6" stroke="#D85A30" stroke-width="1.6" stroke-opacity="0.55"/><line x1="669.8" y1="487.1" x2="669.8" y2="318.9" stroke="#D85A30" stroke-width="1.6" stroke-opacity="0.55"/><line x1="665.8" y1="487.1" x2="673.8" y2="487.1" stroke="#D85A30" stroke-width="1.6" stroke-opacity="0.55"/><line x1="665.8" y1="318.9" x2="673.8" y2="318.9" stroke="#D85A30" stroke-width="1.6" stroke-opacity="0.55"/><line x1="752.9" y1="417.3" x2="752.9" y2="281.1" stroke="#D85A30" stroke-width="1.6" stroke-opacity="0.55"/><line x1="748.9" y1="417.3" x2="756.9" y2="417.3" stroke="#D85A30" stroke-width="1.6" stroke-opacity="0.55"/><line x1="748.9" y1="281.1" x2="756.9" y2="281.1" stroke="#D85A30" stroke-width="1.6" stroke-opacity="0.55"/><line x1="836.0" y1="479.7" x2="836.0" y2="313.4" stroke="#D85A30" stroke-width="1.6" stroke-opacity="0.55"/><line x1="832.0" y1="479.7" x2="840.0" y2="479.7" stroke="#D85A30" stroke-width="1.6" stroke-opacity="0.55"/><line x1="832.0" y1="313.4" x2="840.0" y2="313.4" stroke="#D85A30" stroke-width="1.6" stroke-opacity="0.55"/><polyline points="88.0,386.4 171.1,413.7 254.2,397.9 337.3,341.8 420.4,382.4 503.6,367.8 586.7,351.4 669.8,402.2 752.9,346.9 836.0,393.5" fill="none" stroke="#D85A30" stroke-width="2.8"/><circle cx="88.0" cy="386.4" r="4.5" fill="#D85A30"/><circle cx="171.1" cy="413.7" r="4.5" fill="#D85A30"/><circle cx="254.2" cy="397.9" r="4.5" fill="#D85A30"/><circle cx="337.3" cy="341.8" r="4.5" fill="#D85A30"/><circle cx="420.4" cy="382.4" r="4.5" fill="#D85A30"/><circle cx="503.6" cy="367.8" r="4.5" fill="#D85A30"/><circle cx="586.7" cy="351.4" r="4.5" fill="#D85A30"/><circle cx="669.8" cy="402.2" r="4.5" fill="#D85A30"/><circle cx="752.9" cy="346.9" r="4.5" fill="#D85A30"/><circle cx="836.0" cy="393.5" r="4.5" fill="#D85A30"/><line x1="96.0" y1="367.0" x2="96.0" y2="261.3" stroke="#1D9E75" stroke-width="1.6" stroke-opacity="0.55"/><line x1="92.0" y1="367.0" x2="100.0" y2="367.0" stroke="#1D9E75" stroke-width="1.6" stroke-opacity="0.55"/><line x1="92.0" y1="261.3" x2="100.0" y2="261.3" stroke="#1D9E75" stroke-width="1.6" stroke-opacity="0.55"/><line x1="179.1" y1="317.5" x2="179.1" y2="214.7" stroke="#1D9E75" stroke-width="1.6" stroke-opacity="0.55"/><line x1="175.1" y1="317.5" x2="183.1" y2="317.5" stroke="#1D9E75" stroke-width="1.6" stroke-opacity="0.55"/><line x1="175.1" y1="214.7" x2="183.1" y2="214.7" stroke="#1D9E75" stroke-width="1.6" stroke-opacity="0.55"/><line x1="262.2" y1="303.4" x2="262.2" y2="176.8" stroke="#1D9E75" stroke-width="1.6" stroke-opacity="0.55"/><line x1="258.2" y1="303.4" x2="266.2" y2="303.4" stroke="#1D9E75" stroke-width="1.6" stroke-opacity="0.55"/><line x1="258.2" y1="176.8" x2="266.2" y2="176.8" stroke="#1D9E75" stroke-width="1.6" stroke-opacity="0.55"/><line x1="345.3" y1="287.6" x2="345.3" y2="168.5" stroke="#1D9E75" stroke-width="1.6" stroke-opacity="0.55"/><line x1="341.3" y1="287.6" x2="349.3" y2="287.6" stroke="#1D9E75" stroke-width="1.6" stroke-opacity="0.55"/><line x1="341.3" y1="168.5" x2="349.3" y2="168.5" stroke="#1D9E75" stroke-width="1.6" stroke-opacity="0.55"/><line x1="428.4" y1="278.5" x2="428.4" y2="160.5" stroke="#1D9E75" stroke-width="1.6" stroke-opacity="0.55"/><line x1="424.4" y1="278.5" x2="432.4" y2="278.5" stroke="#1D9E75" stroke-width="1.6" stroke-opacity="0.55"/><line x1="424.4" y1="160.5" x2="432.4" y2="160.5" stroke="#1D9E75" stroke-width="1.6" stroke-opacity="0.55"/><line x1="511.6" y1="293.3" x2="511.6" y2="175.8" stroke="#1D9E75" stroke-width="1.6" stroke-opacity="0.55"/><line x1="507.6" y1="293.3" x2="515.6" y2="293.3" stroke="#1D9E75" stroke-width="1.6" stroke-opacity="0.55"/><line x1="507.6" y1="175.8" x2="515.6" y2="175.8" stroke="#1D9E75" stroke-width="1.6" stroke-opacity="0.55"/><line x1="594.7" y1="269.5" x2="594.7" y2="147.4" stroke="#1D9E75" stroke-width="1.6" stroke-opacity="0.55"/><line x1="590.7" y1="269.5" x2="598.7" y2="269.5" stroke="#1D9E75" stroke-width="1.6" stroke-opacity="0.55"/><line x1="590.7" y1="147.4" x2="598.7" y2="147.4" stroke="#1D9E75" stroke-width="1.6" stroke-opacity="0.55"/><line x1="677.8" y1="287.7" x2="677.8" y2="167.6" stroke="#1D9E75" stroke-width="1.6" stroke-opacity="0.55"/><line x1="673.8" y1="287.7" x2="681.8" y2="287.7" stroke="#1D9E75" stroke-width="1.6" stroke-opacity="0.55"/><line x1="673.8" y1="167.6" x2="681.8" y2="167.6" stroke="#1D9E75" stroke-width="1.6" stroke-opacity="0.55"/><line x1="760.9" y1="265.4" x2="760.9" y2="142.9" stroke="#1D9E75" stroke-width="1.6" stroke-opacity="0.55"/><line x1="756.9" y1="265.4" x2="764.9" y2="265.4" stroke="#1D9E75" stroke-width="1.6" stroke-opacity="0.55"/><line x1="756.9" y1="142.9" x2="764.9" y2="142.9" stroke="#1D9E75" stroke-width="1.6" stroke-opacity="0.55"/><line x1="844.0" y1="274.2" x2="844.0" y2="152.0" stroke="#1D9E75" stroke-width="1.6" stroke-opacity="0.55"/><line x1="840.0" y1="274.2" x2="848.0" y2="274.2" stroke="#1D9E75" stroke-width="1.6" stroke-opacity="0.55"/><line x1="840.0" y1="152.0" x2="848.0" y2="152.0" stroke="#1D9E75" stroke-width="1.6" stroke-opacity="0.55"/><polyline points="96.0,312.8 179.1,265.6 262.2,237.5 345.3,225.7 428.4,219.1 511.6,232.3 594.7,205.4 677.8,225.9 760.9,202.5 844.0,210.5" fill="none" stroke="#1D9E75" stroke-width="2.8"/><circle cx="96.0" cy="312.8" r="4.5" fill="#1D9E75"/><circle cx="179.1" cy="265.6" r="4.5" fill="#1D9E75"/><circle cx="262.2" cy="237.5" r="4.5" fill="#1D9E75"/><circle cx="345.3" cy="225.7" r="4.5" fill="#1D9E75"/><circle cx="428.4" cy="219.1" r="4.5" fill="#1D9E75"/><circle cx="511.6" cy="232.3" r="4.5" fill="#1D9E75"/><circle cx="594.7" cy="205.4" r="4.5" fill="#1D9E75"/><circle cx="677.8" cy="225.9" r="4.5" fill="#1D9E75"/><circle cx="760.9" cy="202.5" r="4.5" fill="#1D9E75"/><circle cx="844.0" cy="210.5" r="4.5" fill="#1D9E75"/><text x="850.0" y="214.5" font-size="15" font-weight="600" fill="#0F6E56">Sonnet</text><text x="850.0" y="397.5" font-size="15" font-weight="600" fill="#993C1D">Haiku</text></svg>