<svg xmlns="http://www.w3.org/2000/svg" viewBox="0 0 1120 610" width="100%" style="height:auto" font-family="Inter,Arial,sans-serif"><rect width="1120" height="610" fill="#ffffff"/><text x="48" y="44" font-size="28" font-weight="700" fill="#111827">Sonnet vs Haiku fuser — direction is clear, power isn't</text><text x="48" y="73" font-size="16" fill="#6b7280">Same 4 tasks, same Sonnet-4.6 grader. Whiskers = 95% bootstrap CI over 4 tasks (B=20k).</text><line x1="92.0" y1="506.8" x2="840.0" y2="506.8" stroke="#eef0f2" stroke-width="1"/><text x="80" y="511.8" font-size="14" text-anchor="end" fill="#6b7280">35</text><line x1="92.0" y1="473.7" x2="840.0" y2="473.7" stroke="#eef0f2" stroke-width="1"/><text x="80" y="478.7" font-size="14" text-anchor="end" fill="#6b7280">40</text><line x1="92.0" y1="440.6" x2="840.0" y2="440.6" stroke="#eef0f2" stroke-width="1"/><text x="80" y="445.6" font-size="14" text-anchor="end" fill="#6b7280">45</text><line x1="92.0" y1="407.6" x2="840.0" y2="407.6" stroke="#eef0f2" stroke-width="1"/><text x="80" y="412.6" font-size="14" text-anchor="end" fill="#6b7280">50</text><line x1="92.0" y1="374.5" x2="840.0" y2="374.5" stroke="#eef0f2" stroke-width="1"/><text x="80" y="379.5" font-size="14" text-anchor="end" fill="#6b7280">55</text><line x1="92.0" y1="341.5" x2="840.0" y2="341.5" stroke="#eef0f2" stroke-width="1"/><text x="80" y="346.5" font-size="14" text-anchor="end" fill="#6b7280">60</text><line x1="92.0" y1="308.4" x2="840.0" y2="308.4" stroke="#eef0f2" stroke-width="1"/><text x="80" y="313.4" font-size="14" text-anchor="end" fill="#6b7280">65</text><line x1="92.0" y1="275.3" x2="840.0" y2="275.3" stroke="#eef0f2" stroke-width="1"/><text x="80" y="280.3" font-size="14" text-anchor="end" fill="#6b7280">70</text><line x1="92.0" y1="242.3" x2="840.0" y2="242.3" stroke="#eef0f2" stroke-width="1"/><text x="80" y="247.3" font-size="14" text-anchor="end" fill="#6b7280">75</text><line x1="92.0" y1="209.2" x2="840.0" y2="209.2" stroke="#eef0f2" stroke-width="1"/><text x="80" y="214.2" font-size="14" text-anchor="end" fill="#6b7280">80</text><line x1="92.0" y1="176.1" x2="840.0" y2="176.1" stroke="#eef0f2" stroke-width="1"/><text x="80" y="181.1" font-size="14" text-anchor="end" fill="#6b7280">85</text><line x1="92.0" y1="143.1" x2="840.0" y2="143.1" stroke="#eef0f2" stroke-width="1"/><text x="80" y="148.1" font-size="14" text-anchor="end" fill="#6b7280">90</text><line x1="92.0" y1="110.0" x2="840.0" y2="110.0" stroke="#eef0f2" stroke-width="1"/><text x="80" y="115.0" font-size="14" text-anchor="end" fill="#6b7280">95</text><text x="92.0" y="548.0" font-size="15" text-anchor="middle" fill="#6b7280">1</text><text x="175.1" y="548.0" font-size="15" text-anchor="middle" fill="#6b7280">2</text><text x="258.2" y="548.0" font-size="15" text-anchor="middle" fill="#6b7280">3</text><text x="341.3" y="548.0" font-size="15" text-anchor="middle" fill="#6b7280">4</text><text x="424.4" y="548.0" font-size="15" text-anchor="middle" fill="#6b7280">5</text><text x="507.6" y="548.0" font-size="15" text-anchor="middle" fill="#6b7280">6</text><text x="590.7" y="548.0" font-size="15" text-anchor="middle" fill="#6b7280">7</text><text x="673.8" y="548.0" font-size="15" text-anchor="middle" fill="#6b7280">8</text><text x="756.9" y="548.0" font-size="15" text-anchor="middle" fill="#6b7280">9</text><text x="840.0" y="548.0" font-size="15" text-anchor="middle" fill="#6b7280">10</text><text x="466.0" y="578.0" font-size="16" text-anchor="middle" fill="#111827">number of runs fused</text><line x1="88.0" y1="438.8" x2="88.0" y2="190.6" stroke="#D85A30" stroke-width="1.6" stroke-opacity="0.55"/><line x1="84.0" y1="438.8" x2="92.0" y2="438.8" stroke="#D85A30" stroke-width="1.6" stroke-opacity="0.55"/><line x1="84.0" y1="190.6" x2="92.0" y2="190.6" stroke="#D85A30" stroke-width="1.6" stroke-opacity="0.55"/><line x1="171.1" y1="503.1" x2="171.1" y2="288.8" stroke="#D85A30" stroke-width="1.6" stroke-opacity="0.55"/><line x1="167.1" y1="503.1" x2="175.1" y2="503.1" stroke="#D85A30" stroke-width="1.6" stroke-opacity="0.55"/><line x1="167.1" y1="288.8" x2="175.1" y2="288.8" stroke="#D85A30" stroke-width="1.6" stroke-opacity="0.55"/><line x1="254.2" y1="396.5" x2="254.2" y2="209.6" stroke="#D85A30" stroke-width="1.6" stroke-opacity="0.55"/><line x1="250.2" y1="396.5" x2="258.2" y2="396.5" stroke="#D85A30" stroke-width="1.6" stroke-opacity="0.55"/><line x1="250.2" y1="209.6" x2="258.2" y2="209.6" stroke="#D85A30" stroke-width="1.6" stroke-opacity="0.55"/><line x1="337.3" y1="414.7" x2="337.3" y2="158.3" stroke="#D85A30" stroke-width="1.6" stroke-opacity="0.55"/><line x1="333.3" y1="414.7" x2="341.3" y2="414.7" stroke="#D85A30" stroke-width="1.6" stroke-opacity="0.55"/><line x1="333.3" y1="158.3" x2="341.3" y2="158.3" stroke="#D85A30" stroke-width="1.6" stroke-opacity="0.55"/><line x1="420.4" y1="420.0" x2="420.4" y2="236.4" stroke="#D85A30" stroke-width="1.6" stroke-opacity="0.55"/><line x1="416.4" y1="420.0" x2="424.4" y2="420.0" stroke="#D85A30" stroke-width="1.6" stroke-opacity="0.55"/><line x1="416.4" y1="236.4" x2="424.4" y2="236.4" stroke="#D85A30" stroke-width="1.6" stroke-opacity="0.55"/><line x1="503.6" y1="469.0" x2="503.6" y2="233.9" stroke="#D85A30" stroke-width="1.6" stroke-opacity="0.55"/><line x1="499.6" y1="469.0" x2="507.6" y2="469.0" stroke="#D85A30" stroke-width="1.6" stroke-opacity="0.55"/><line x1="499.6" y1="233.9" x2="507.6" y2="233.9" stroke="#D85A30" stroke-width="1.6" stroke-opacity="0.55"/><line x1="586.7" y1="440.2" x2="586.7" y2="170.5" stroke="#D85A30" stroke-width="1.6" stroke-opacity="0.55"/><line x1="582.7" y1="440.2" x2="590.7" y2="440.2" stroke="#D85A30" stroke-width="1.6" stroke-opacity="0.55"/><line x1="582.7" y1="170.5" x2="590.7" y2="170.5" stroke="#D85A30" stroke-width="1.6" stroke-opacity="0.55"/><line x1="669.8" y1="448.9" x2="669.8" y2="204.9" stroke="#D85A30" stroke-width="1.6" stroke-opacity="0.55"/><line x1="665.8" y1="448.9" x2="673.8" y2="448.9" stroke="#D85A30" stroke-width="1.6" stroke-opacity="0.55"/><line x1="665.8" y1="204.9" x2="673.8" y2="204.9" stroke="#D85A30" stroke-width="1.6" stroke-opacity="0.55"/><line x1="752.9" y1="454.2" x2="752.9" y2="296.1" stroke="#D85A30" stroke-width="1.6" stroke-opacity="0.55"/><line x1="748.9" y1="454.2" x2="756.9" y2="454.2" stroke="#D85A30" stroke-width="1.6" stroke-opacity="0.55"/><line x1="748.9" y1="296.1" x2="756.9" y2="296.1" stroke="#D85A30" stroke-width="1.6" stroke-opacity="0.55"/><line x1="836.0" y1="450.2" x2="836.0" y2="262.6" stroke="#D85A30" stroke-width="1.6" stroke-opacity="0.55"/><line x1="832.0" y1="450.2" x2="840.0" y2="450.2" stroke="#D85A30" stroke-width="1.6" stroke-opacity="0.55"/><line x1="832.0" y1="262.6" x2="840.0" y2="262.6" stroke="#D85A30" stroke-width="1.6" stroke-opacity="0.55"/><polyline points="88.0,314.7 171.1,387.2 254.2,303.0 337.3,257.5 420.4,333.2 503.6,352.1 586.7,293.8 669.8,326.9 752.9,363.1 836.0,339.8" fill="none" stroke="#D85A30" stroke-width="2.8"/><circle cx="88.0" cy="314.7" r="4.5" fill="#D85A30"/><circle cx="171.1" cy="387.2" r="4.5" fill="#D85A30"/><circle cx="254.2" cy="303.0" r="4.5" fill="#D85A30"/><circle cx="337.3" cy="257.5" r="4.5" fill="#D85A30"/><circle cx="420.4" cy="333.2" r="4.5" fill="#D85A30"/><circle cx="503.6" cy="352.1" r="4.5" fill="#D85A30"/><circle cx="586.7" cy="293.8" r="4.5" fill="#D85A30"/><circle cx="669.8" cy="326.9" r="4.5" fill="#D85A30"/><circle cx="752.9" cy="363.1" r="4.5" fill="#D85A30"/><circle cx="836.0" cy="339.8" r="4.5" fill="#D85A30"/><line x1="96.0" y1="341.7" x2="96.0" y2="174.1" stroke="#1D9E75" stroke-width="1.6" stroke-opacity="0.55"/><line x1="92.0" y1="341.7" x2="100.0" y2="341.7" stroke="#1D9E75" stroke-width="1.6" stroke-opacity="0.55"/><line x1="92.0" y1="174.1" x2="100.0" y2="174.1" stroke="#1D9E75" stroke-width="1.6" stroke-opacity="0.55"/><line x1="179.1" y1="313.6" x2="179.1" y2="183.1" stroke="#1D9E75" stroke-width="1.6" stroke-opacity="0.55"/><line x1="175.1" y1="313.6" x2="183.1" y2="313.6" stroke="#1D9E75" stroke-width="1.6" stroke-opacity="0.55"/><line x1="175.1" y1="183.1" x2="183.1" y2="183.1" stroke="#1D9E75" stroke-width="1.6" stroke-opacity="0.55"/><line x1="262.2" y1="295.6" x2="262.2" y2="154.6" stroke="#1D9E75" stroke-width="1.6" stroke-opacity="0.55"/><line x1="258.2" y1="295.6" x2="266.2" y2="295.6" stroke="#1D9E75" stroke-width="1.6" stroke-opacity="0.55"/><line x1="258.2" y1="154.6" x2="266.2" y2="154.6" stroke="#1D9E75" stroke-width="1.6" stroke-opacity="0.55"/><line x1="345.3" y1="284.6" x2="345.3" y2="157.5" stroke="#1D9E75" stroke-width="1.6" stroke-opacity="0.55"/><line x1="341.3" y1="284.6" x2="349.3" y2="284.6" stroke="#1D9E75" stroke-width="1.6" stroke-opacity="0.55"/><line x1="341.3" y1="157.5" x2="349.3" y2="157.5" stroke="#1D9E75" stroke-width="1.6" stroke-opacity="0.55"/><line x1="428.4" y1="318.0" x2="428.4" y2="154.6" stroke="#1D9E75" stroke-width="1.6" stroke-opacity="0.55"/><line x1="424.4" y1="318.0" x2="432.4" y2="318.0" stroke="#1D9E75" stroke-width="1.6" stroke-opacity="0.55"/><line x1="424.4" y1="154.6" x2="432.4" y2="154.6" stroke="#1D9E75" stroke-width="1.6" stroke-opacity="0.55"/><line x1="511.6" y1="282.9" x2="511.6" y2="130.6" stroke="#1D9E75" stroke-width="1.6" stroke-opacity="0.55"/><line x1="507.6" y1="282.9" x2="515.6" y2="282.9" stroke="#1D9E75" stroke-width="1.6" stroke-opacity="0.55"/><line x1="507.6" y1="130.6" x2="515.6" y2="130.6" stroke="#1D9E75" stroke-width="1.6" stroke-opacity="0.55"/><line x1="594.7" y1="272.2" x2="594.7" y2="144.7" stroke="#1D9E75" stroke-width="1.6" stroke-opacity="0.55"/><line x1="590.7" y1="272.2" x2="598.7" y2="272.2" stroke="#1D9E75" stroke-width="1.6" stroke-opacity="0.55"/><line x1="590.7" y1="144.7" x2="598.7" y2="144.7" stroke="#1D9E75" stroke-width="1.6" stroke-opacity="0.55"/><line x1="677.8" y1="295.6" x2="677.8" y2="150.7" stroke="#1D9E75" stroke-width="1.6" stroke-opacity="0.55"/><line x1="673.8" y1="295.6" x2="681.8" y2="295.6" stroke="#1D9E75" stroke-width="1.6" stroke-opacity="0.55"/><line x1="673.8" y1="150.7" x2="681.8" y2="150.7" stroke="#1D9E75" stroke-width="1.6" stroke-opacity="0.55"/><line x1="760.9" y1="284.5" x2="760.9" y2="144.1" stroke="#1D9E75" stroke-width="1.6" stroke-opacity="0.55"/><line x1="756.9" y1="284.5" x2="764.9" y2="284.5" stroke="#1D9E75" stroke-width="1.6" stroke-opacity="0.55"/><line x1="756.9" y1="144.1" x2="764.9" y2="144.1" stroke="#1D9E75" stroke-width="1.6" stroke-opacity="0.55"/><line x1="844.0" y1="313.5" x2="844.0" y2="150.7" stroke="#1D9E75" stroke-width="1.6" stroke-opacity="0.55"/><line x1="840.0" y1="313.5" x2="848.0" y2="313.5" stroke="#1D9E75" stroke-width="1.6" stroke-opacity="0.55"/><line x1="840.0" y1="150.7" x2="848.0" y2="150.7" stroke="#1D9E75" stroke-width="1.6" stroke-opacity="0.55"/><polyline points="96.0,253.0 179.1,247.9 262.2,222.1 345.3,211.1 428.4,236.3 511.6,212.9 594.7,213.9 677.8,223.2 760.9,214.3 844.0,230.5" fill="none" stroke="#1D9E75" stroke-width="2.8"/><circle cx="96.0" cy="253.0" r="4.5" fill="#1D9E75"/><circle cx="179.1" cy="247.9" r="4.5" fill="#1D9E75"/><circle cx="262.2" cy="222.1" r="4.5" fill="#1D9E75"/><circle cx="345.3" cy="211.1" r="4.5" fill="#1D9E75"/><circle cx="428.4" cy="236.3" r="4.5" fill="#1D9E75"/><circle cx="511.6" cy="212.9" r="4.5" fill="#1D9E75"/><circle cx="594.7" cy="213.9" r="4.5" fill="#1D9E75"/><circle cx="677.8" cy="223.2" r="4.5" fill="#1D9E75"/><circle cx="760.9" cy="214.3" r="4.5" fill="#1D9E75"/><circle cx="844.0" cy="230.5" r="4.5" fill="#1D9E75"/><text x="850.0" y="234.5" font-size="15" font-weight="600" fill="#0F6E56">Sonnet</text><text x="850.0" y="343.8" font-size="15" font-weight="600" fill="#993C1D">Haiku</text></svg>