<svg xmlns="http://www.w3.org/2000/svg" viewBox="0 0 1120 610" width="100%" style="height:auto" font-family="Inter,Arial,sans-serif"><rect width="1120" height="610" fill="#ffffff"/><text x="48" y="44" font-size="29" font-weight="700" fill="#111827">Haiku self-fusion: a small bump you can't call real</text><text x="48" y="74" font-size="16.5" fill="#6b7280">DRACO vs Haiku runs fused — 26 tasks, Sonnet-4.6 chunk-all grader. Whiskers = 95% bootstrap CI over tasks.</text><line x1="92.0" y1="488.5" x2="860.0" y2="488.5" stroke="#eef0f2" stroke-width="1"/><text x="80" y="493.5" font-size="15" text-anchor="end" fill="#6b7280">50</text><line x1="92.0" y1="409.6" x2="860.0" y2="409.6" stroke="#eef0f2" stroke-width="1"/><text x="80" y="414.6" font-size="15" text-anchor="end" fill="#6b7280">55</text><line x1="92.0" y1="330.8" x2="860.0" y2="330.8" stroke="#eef0f2" stroke-width="1"/><text x="80" y="335.8" font-size="15" text-anchor="end" fill="#6b7280">60</text><line x1="92.0" y1="251.9" x2="860.0" y2="251.9" stroke="#eef0f2" stroke-width="1"/><text x="80" y="256.9" font-size="15" text-anchor="end" fill="#6b7280">65</text><line x1="92.0" y1="173.1" x2="860.0" y2="173.1" stroke="#eef0f2" stroke-width="1"/><text x="80" y="178.1" font-size="15" text-anchor="end" fill="#6b7280">70</text><text x="92.0" y="548.0" font-size="15" text-anchor="middle" fill="#6b7280">1</text><text x="177.3" y="548.0" font-size="15" text-anchor="middle" fill="#6b7280">2</text><text x="262.7" y="548.0" font-size="15" text-anchor="middle" fill="#6b7280">3</text><text x="348.0" y="548.0" font-size="15" text-anchor="middle" fill="#6b7280">4</text><text x="433.3" y="548.0" font-size="15" text-anchor="middle" fill="#6b7280">5</text><text x="518.7" y="548.0" font-size="15" text-anchor="middle" fill="#6b7280">6</text><text x="604.0" y="548.0" font-size="15" text-anchor="middle" fill="#6b7280">7</text><text x="689.3" y="548.0" font-size="15" text-anchor="middle" fill="#6b7280">8</text><text x="774.7" y="548.0" font-size="15" text-anchor="middle" fill="#6b7280">9</text><text x="860.0" y="548.0" font-size="15" text-anchor="middle" fill="#6b7280">10</text><text x="476.0" y="578.0" font-size="16" text-anchor="middle" fill="#111827">number of Haiku runs fused</text><line x1="92.0" y1="322.8" x2="860.0" y2="322.8" stroke="#c23b3b" stroke-width="1.3" stroke-dasharray="6 4"/><text x="868.0" y="327.8" font-size="14" fill="#c23b3b">solo 60.5</text><line x1="92.0" y1="408.0" x2="92.0" y2="238.2" stroke="#1d9e75" stroke-width="2"/><line x1="87.0" y1="408.0" x2="97.0" y2="408.0" stroke="#1d9e75" stroke-width="2"/><line x1="87.0" y1="238.2" x2="97.0" y2="238.2" stroke="#1d9e75" stroke-width="2"/><line x1="177.3" y1="450.5" x2="177.3" y2="259.4" stroke="#1d9e75" stroke-width="2"/><line x1="172.3" y1="450.5" x2="182.3" y2="450.5" stroke="#1d9e75" stroke-width="2"/><line x1="172.3" y1="259.4" x2="182.3" y2="259.4" stroke="#1d9e75" stroke-width="2"/><line x1="262.7" y1="429.9" x2="262.7" y2="230.4" stroke="#1d9e75" stroke-width="2"/><line x1="257.7" y1="429.9" x2="267.7" y2="429.9" stroke="#1d9e75" stroke-width="2"/><line x1="257.7" y1="230.4" x2="267.7" y2="230.4" stroke="#1d9e75" stroke-width="2"/><line x1="348.0" y1="354.5" x2="348.0" y2="154.3" stroke="#1d9e75" stroke-width="2"/><line x1="343.0" y1="354.5" x2="353.0" y2="354.5" stroke="#1d9e75" stroke-width="2"/><line x1="343.0" y1="154.3" x2="353.0" y2="154.3" stroke="#1d9e75" stroke-width="2"/><line x1="433.3" y1="399.7" x2="433.3" y2="194.5" stroke="#1d9e75" stroke-width="2"/><line x1="428.3" y1="399.7" x2="438.3" y2="399.7" stroke="#1d9e75" stroke-width="2"/><line x1="428.3" y1="194.5" x2="438.3" y2="194.5" stroke="#1d9e75" stroke-width="2"/><line x1="518.7" y1="388.4" x2="518.7" y2="180.7" stroke="#1d9e75" stroke-width="2"/><line x1="513.7" y1="388.4" x2="523.7" y2="388.4" stroke="#1d9e75" stroke-width="2"/><line x1="513.7" y1="180.7" x2="523.7" y2="180.7" stroke="#1d9e75" stroke-width="2"/><line x1="604.0" y1="369.0" x2="604.0" y2="155.8" stroke="#1d9e75" stroke-width="2"/><line x1="599.0" y1="369.0" x2="609.0" y2="369.0" stroke="#1d9e75" stroke-width="2"/><line x1="599.0" y1="155.8" x2="609.0" y2="155.8" stroke="#1d9e75" stroke-width="2"/><line x1="689.3" y1="446.4" x2="689.3" y2="219.5" stroke="#1d9e75" stroke-width="2"/><line x1="684.3" y1="446.4" x2="694.3" y2="446.4" stroke="#1d9e75" stroke-width="2"/><line x1="684.3" y1="219.5" x2="694.3" y2="219.5" stroke="#1d9e75" stroke-width="2"/><line x1="774.7" y1="363.5" x2="774.7" y2="181.4" stroke="#1d9e75" stroke-width="2"/><line x1="769.7" y1="363.5" x2="779.7" y2="363.5" stroke="#1d9e75" stroke-width="2"/><line x1="769.7" y1="181.4" x2="779.7" y2="181.4" stroke="#1d9e75" stroke-width="2"/><line x1="860.0" y1="440.2" x2="860.0" y2="221.2" stroke="#1d9e75" stroke-width="2"/><line x1="855.0" y1="440.2" x2="865.0" y2="440.2" stroke="#1d9e75" stroke-width="2"/><line x1="855.0" y1="221.2" x2="865.0" y2="221.2" stroke="#1d9e75" stroke-width="2"/><polyline points="92.0,322.8 177.3,354.1 262.7,329.0 348.0,250.3 433.3,295.6 518.7,282.3 604.0,258.3 689.3,330.4 774.7,268.6 860.0,326.1" fill="none" stroke="#1d9e75" stroke-width="2.5"/><circle cx="92.0" cy="322.8" r="5" fill="#1d9e75"/><text x="92.0" y="310.8" font-size="13" font-weight="600" text-anchor="middle" fill="#0f6e56">60.5</text><circle cx="177.3" cy="354.1" r="5" fill="#1d9e75"/><text x="177.3" y="342.1" font-size="13" font-weight="600" text-anchor="middle" fill="#0f6e56">58.5</text><circle cx="262.7" cy="329.0" r="5" fill="#1d9e75"/><text x="262.7" y="317.0" font-size="13" font-weight="600" text-anchor="middle" fill="#0f6e56">60.1</text><circle cx="348.0" cy="250.3" r="5" fill="#1d9e75"/><text x="348.0" y="238.3" font-size="13" font-weight="600" text-anchor="middle" fill="#0f6e56">65.1</text><circle cx="433.3" cy="295.6" r="5" fill="#1d9e75"/><text x="433.3" y="283.6" font-size="13" font-weight="600" text-anchor="middle" fill="#0f6e56">62.2</text><circle cx="518.7" cy="282.3" r="5" fill="#1d9e75"/><text x="518.7" y="270.3" font-size="13" font-weight="600" text-anchor="middle" fill="#0f6e56">63.1</text><circle cx="604.0" cy="258.3" r="5" fill="#1d9e75"/><text x="604.0" y="246.3" font-size="13" font-weight="600" text-anchor="middle" fill="#0f6e56">64.6</text><circle cx="689.3" cy="330.4" r="5" fill="#1d9e75"/><text x="689.3" y="318.4" font-size="13" font-weight="600" text-anchor="middle" fill="#0f6e56">60.0</text><circle cx="774.7" cy="268.6" r="5" fill="#1d9e75"/><text x="774.7" y="256.6" font-size="13" font-weight="600" text-anchor="middle" fill="#0f6e56">63.9</text><circle cx="860.0" cy="326.1" r="5" fill="#1d9e75"/><text x="860.0" y="314.1" font-size="13" font-weight="600" text-anchor="middle" fill="#0f6e56">60.3</text></svg>