<svg xmlns="http://www.w3.org/2000/svg" viewBox="0 0 1120 610" width="100%" style="height:auto" font-family="Inter,Arial,sans-serif"><rect width="1120" height="610" fill="#ffffff"/><text x="48" y="44" font-size="28" font-weight="700" fill="#111827">Sonnet fuser climbs, Haiku barely moves</text><text x="48" y="73" font-size="16" fill="#6b7280">23 shared tasks, same Sonnet-4.6 grader. Whiskers = 95% bootstrap CI over tasks (B=20k).</text><line x1="92.0" y1="517.9" x2="840.0" y2="517.9" stroke="#eef0f2" stroke-width="1"/><text x="80" y="522.9" font-size="14" text-anchor="end" fill="#6b7280">50</text><line x1="92.0" y1="458.6" x2="840.0" y2="458.6" stroke="#eef0f2" stroke-width="1"/><text x="80" y="463.6" font-size="14" text-anchor="end" fill="#6b7280">55</text><line x1="92.0" y1="399.4" x2="840.0" y2="399.4" stroke="#eef0f2" stroke-width="1"/><text x="80" y="404.4" font-size="14" text-anchor="end" fill="#6b7280">60</text><line x1="92.0" y1="340.2" x2="840.0" y2="340.2" stroke="#eef0f2" stroke-width="1"/><text x="80" y="345.2" font-size="14" text-anchor="end" fill="#6b7280">65</text><line x1="92.0" y1="281.0" x2="840.0" y2="281.0" stroke="#eef0f2" stroke-width="1"/><text x="80" y="286.0" font-size="14" text-anchor="end" fill="#6b7280">70</text><line x1="92.0" y1="221.8" x2="840.0" y2="221.8" stroke="#eef0f2" stroke-width="1"/><text x="80" y="226.8" font-size="14" text-anchor="end" fill="#6b7280">75</text><line x1="92.0" y1="162.6" x2="840.0" y2="162.6" stroke="#eef0f2" stroke-width="1"/><text x="80" y="167.6" font-size="14" text-anchor="end" fill="#6b7280">80</text><text x="92.0" y="548.0" font-size="15" text-anchor="middle" fill="#6b7280">1</text><text x="175.1" y="548.0" font-size="15" text-anchor="middle" fill="#6b7280">2</text><text x="258.2" y="548.0" font-size="15" text-anchor="middle" fill="#6b7280">3</text><text x="341.3" y="548.0" font-size="15" text-anchor="middle" fill="#6b7280">4</text><text x="424.4" y="548.0" font-size="15" text-anchor="middle" fill="#6b7280">5</text><text x="507.6" y="548.0" font-size="15" text-anchor="middle" fill="#6b7280">6</text><text x="590.7" y="548.0" font-size="15" text-anchor="middle" fill="#6b7280">7</text><text x="673.8" y="548.0" font-size="15" text-anchor="middle" fill="#6b7280">8</text><text x="756.9" y="548.0" font-size="15" text-anchor="middle" fill="#6b7280">9</text><text x="840.0" y="548.0" font-size="15" text-anchor="middle" fill="#6b7280">10</text><text x="466.0" y="578.0" font-size="16" text-anchor="middle" fill="#111827">number of runs fused</text><line x1="88.0" y1="440.5" x2="88.0" y2="291.9" stroke="#D85A30" stroke-width="1.6" stroke-opacity="0.55"/><line x1="84.0" y1="440.5" x2="92.0" y2="440.5" stroke="#D85A30" stroke-width="1.6" stroke-opacity="0.55"/><line x1="84.0" y1="291.9" x2="92.0" y2="291.9" stroke="#D85A30" stroke-width="1.6" stroke-opacity="0.55"/><line x1="171.1" y1="484.5" x2="171.1" y2="320.9" stroke="#D85A30" stroke-width="1.6" stroke-opacity="0.55"/><line x1="167.1" y1="484.5" x2="175.1" y2="484.5" stroke="#D85A30" stroke-width="1.6" stroke-opacity="0.55"/><line x1="167.1" y1="320.9" x2="175.1" y2="320.9" stroke="#D85A30" stroke-width="1.6" stroke-opacity="0.55"/><line x1="254.2" y1="445.0" x2="254.2" y2="303.3" stroke="#D85A30" stroke-width="1.6" stroke-opacity="0.55"/><line x1="250.2" y1="445.0" x2="258.2" y2="445.0" stroke="#D85A30" stroke-width="1.6" stroke-opacity="0.55"/><line x1="250.2" y1="303.3" x2="258.2" y2="303.3" stroke="#D85A30" stroke-width="1.6" stroke-opacity="0.55"/><line x1="337.3" y1="437.7" x2="337.3" y2="292.2" stroke="#D85A30" stroke-width="1.6" stroke-opacity="0.55"/><line x1="333.3" y1="437.7" x2="341.3" y2="437.7" stroke="#D85A30" stroke-width="1.6" stroke-opacity="0.55"/><line x1="333.3" y1="292.2" x2="341.3" y2="292.2" stroke="#D85A30" stroke-width="1.6" stroke-opacity="0.55"/><line x1="420.4" y1="404.0" x2="420.4" y2="276.4" stroke="#D85A30" stroke-width="1.6" stroke-opacity="0.55"/><line x1="416.4" y1="404.0" x2="424.4" y2="404.0" stroke="#D85A30" stroke-width="1.6" stroke-opacity="0.55"/><line x1="416.4" y1="276.4" x2="424.4" y2="276.4" stroke="#D85A30" stroke-width="1.6" stroke-opacity="0.55"/><line x1="503.6" y1="405.2" x2="503.6" y2="249.8" stroke="#D85A30" stroke-width="1.6" stroke-opacity="0.55"/><line x1="499.6" y1="405.2" x2="507.6" y2="405.2" stroke="#D85A30" stroke-width="1.6" stroke-opacity="0.55"/><line x1="499.6" y1="249.8" x2="507.6" y2="249.8" stroke="#D85A30" stroke-width="1.6" stroke-opacity="0.55"/><line x1="586.7" y1="419.9" x2="586.7" y2="268.9" stroke="#D85A30" stroke-width="1.6" stroke-opacity="0.55"/><line x1="582.7" y1="419.9" x2="590.7" y2="419.9" stroke="#D85A30" stroke-width="1.6" stroke-opacity="0.55"/><line x1="582.7" y1="268.9" x2="590.7" y2="268.9" stroke="#D85A30" stroke-width="1.6" stroke-opacity="0.55"/><line x1="669.8" y1="364.2" x2="669.8" y2="221.4" stroke="#D85A30" stroke-width="1.6" stroke-opacity="0.55"/><line x1="665.8" y1="364.2" x2="673.8" y2="364.2" stroke="#D85A30" stroke-width="1.6" stroke-opacity="0.55"/><line x1="665.8" y1="221.4" x2="673.8" y2="221.4" stroke="#D85A30" stroke-width="1.6" stroke-opacity="0.55"/><line x1="752.9" y1="389.8" x2="752.9" y2="261.1" stroke="#D85A30" stroke-width="1.6" stroke-opacity="0.55"/><line x1="748.9" y1="389.8" x2="756.9" y2="389.8" stroke="#D85A30" stroke-width="1.6" stroke-opacity="0.55"/><line x1="748.9" y1="261.1" x2="756.9" y2="261.1" stroke="#D85A30" stroke-width="1.6" stroke-opacity="0.55"/><line x1="836.0" y1="362.7" x2="836.0" y2="246.1" stroke="#D85A30" stroke-width="1.6" stroke-opacity="0.55"/><line x1="832.0" y1="362.7" x2="840.0" y2="362.7" stroke="#D85A30" stroke-width="1.6" stroke-opacity="0.55"/><line x1="832.0" y1="246.1" x2="840.0" y2="246.1" stroke="#D85A30" stroke-width="1.6" stroke-opacity="0.55"/><polyline points="88.0,364.4 171.1,398.7 254.2,372.2 337.3,361.5 420.4,336.8 503.6,324.7 586.7,339.6 669.8,286.4 752.9,322.0 836.0,301.4" fill="none" stroke="#D85A30" stroke-width="2.8"/><circle cx="88.0" cy="364.4" r="4.5" fill="#D85A30"/><circle cx="171.1" cy="398.7" r="4.5" fill="#D85A30"/><circle cx="254.2" cy="372.2" r="4.5" fill="#D85A30"/><circle cx="337.3" cy="361.5" r="4.5" fill="#D85A30"/><circle cx="420.4" cy="336.8" r="4.5" fill="#D85A30"/><circle cx="503.6" cy="324.7" r="4.5" fill="#D85A30"/><circle cx="586.7" cy="339.6" r="4.5" fill="#D85A30"/><circle cx="669.8" cy="286.4" r="4.5" fill="#D85A30"/><circle cx="752.9" cy="322.0" r="4.5" fill="#D85A30"/><circle cx="836.0" cy="301.4" r="4.5" fill="#D85A30"/><line x1="96.0" y1="386.3" x2="96.0" y2="272.4" stroke="#1D9E75" stroke-width="1.6" stroke-opacity="0.55"/><line x1="92.0" y1="386.3" x2="100.0" y2="386.3" stroke="#1D9E75" stroke-width="1.6" stroke-opacity="0.55"/><line x1="92.0" y1="272.4" x2="100.0" y2="272.4" stroke="#1D9E75" stroke-width="1.6" stroke-opacity="0.55"/><line x1="179.1" y1="333.6" x2="179.1" y2="223.0" stroke="#1D9E75" stroke-width="1.6" stroke-opacity="0.55"/><line x1="175.1" y1="333.6" x2="183.1" y2="333.6" stroke="#1D9E75" stroke-width="1.6" stroke-opacity="0.55"/><line x1="175.1" y1="223.0" x2="183.1" y2="223.0" stroke="#1D9E75" stroke-width="1.6" stroke-opacity="0.55"/><line x1="262.2" y1="317.2" x2="262.2" y2="181.4" stroke="#1D9E75" stroke-width="1.6" stroke-opacity="0.55"/><line x1="258.2" y1="317.2" x2="266.2" y2="317.2" stroke="#1D9E75" stroke-width="1.6" stroke-opacity="0.55"/><line x1="258.2" y1="181.4" x2="266.2" y2="181.4" stroke="#1D9E75" stroke-width="1.6" stroke-opacity="0.55"/><line x1="345.3" y1="301.8" x2="345.3" y2="172.4" stroke="#1D9E75" stroke-width="1.6" stroke-opacity="0.55"/><line x1="341.3" y1="301.8" x2="349.3" y2="301.8" stroke="#1D9E75" stroke-width="1.6" stroke-opacity="0.55"/><line x1="341.3" y1="172.4" x2="349.3" y2="172.4" stroke="#1D9E75" stroke-width="1.6" stroke-opacity="0.55"/><line x1="428.4" y1="290.8" x2="428.4" y2="165.1" stroke="#1D9E75" stroke-width="1.6" stroke-opacity="0.55"/><line x1="424.4" y1="290.8" x2="432.4" y2="290.8" stroke="#1D9E75" stroke-width="1.6" stroke-opacity="0.55"/><line x1="424.4" y1="165.1" x2="432.4" y2="165.1" stroke="#1D9E75" stroke-width="1.6" stroke-opacity="0.55"/><line x1="511.6" y1="305.4" x2="511.6" y2="178.9" stroke="#1D9E75" stroke-width="1.6" stroke-opacity="0.55"/><line x1="507.6" y1="305.4" x2="515.6" y2="305.4" stroke="#1D9E75" stroke-width="1.6" stroke-opacity="0.55"/><line x1="507.6" y1="178.9" x2="515.6" y2="178.9" stroke="#1D9E75" stroke-width="1.6" stroke-opacity="0.55"/><line x1="594.7" y1="280.7" x2="594.7" y2="148.7" stroke="#1D9E75" stroke-width="1.6" stroke-opacity="0.55"/><line x1="590.7" y1="280.7" x2="598.7" y2="280.7" stroke="#1D9E75" stroke-width="1.6" stroke-opacity="0.55"/><line x1="590.7" y1="148.7" x2="598.7" y2="148.7" stroke="#1D9E75" stroke-width="1.6" stroke-opacity="0.55"/><line x1="677.8" y1="300.9" x2="677.8" y2="170.6" stroke="#1D9E75" stroke-width="1.6" stroke-opacity="0.55"/><line x1="673.8" y1="300.9" x2="681.8" y2="300.9" stroke="#1D9E75" stroke-width="1.6" stroke-opacity="0.55"/><line x1="673.8" y1="170.6" x2="681.8" y2="170.6" stroke="#1D9E75" stroke-width="1.6" stroke-opacity="0.55"/><line x1="760.9" y1="276.4" x2="760.9" y2="145.5" stroke="#1D9E75" stroke-width="1.6" stroke-opacity="0.55"/><line x1="756.9" y1="276.4" x2="764.9" y2="276.4" stroke="#1D9E75" stroke-width="1.6" stroke-opacity="0.55"/><line x1="756.9" y1="145.5" x2="764.9" y2="145.5" stroke="#1D9E75" stroke-width="1.6" stroke-opacity="0.55"/><line x1="844.0" y1="285.4" x2="844.0" y2="153.0" stroke="#1D9E75" stroke-width="1.6" stroke-opacity="0.55"/><line x1="840.0" y1="285.4" x2="848.0" y2="285.4" stroke="#1D9E75" stroke-width="1.6" stroke-opacity="0.55"/><line x1="840.0" y1="153.0" x2="848.0" y2="153.0" stroke="#1D9E75" stroke-width="1.6" stroke-opacity="0.55"/><polyline points="96.0,327.7 179.1,276.7 262.2,246.3 345.3,233.6 428.4,226.4 511.6,240.7 594.7,211.6 677.8,233.8 760.9,208.5 844.0,217.1" fill="none" stroke="#1D9E75" stroke-width="2.8"/><circle cx="96.0" cy="327.7" r="4.5" fill="#1D9E75"/><circle cx="179.1" cy="276.7" r="4.5" fill="#1D9E75"/><circle cx="262.2" cy="246.3" r="4.5" fill="#1D9E75"/><circle cx="345.3" cy="233.6" r="4.5" fill="#1D9E75"/><circle cx="428.4" cy="226.4" r="4.5" fill="#1D9E75"/><circle cx="511.6" cy="240.7" r="4.5" fill="#1D9E75"/><circle cx="594.7" cy="211.6" r="4.5" fill="#1D9E75"/><circle cx="677.8" cy="233.8" r="4.5" fill="#1D9E75"/><circle cx="760.9" cy="208.5" r="4.5" fill="#1D9E75"/><circle cx="844.0" cy="217.1" r="4.5" fill="#1D9E75"/><text x="850.0" y="221.1" font-size="15" font-weight="600" fill="#0F6E56">Sonnet</text><text x="850.0" y="305.4" font-size="15" font-weight="600" fill="#993C1D">Haiku</text></svg>