<svg xmlns="http://www.w3.org/2000/svg" viewBox="0 0 1120 610" width="100%" style="height:auto" font-family="Inter,Arial,sans-serif"><rect width="1120" height="610" fill="#ffffff"/><text x="48" y="44" font-size="29" font-weight="700" fill="#111827">Haiku self-fusion: small, noisy gain</text><text x="48" y="74" font-size="16.5" fill="#6b7280">DRACO vs Haiku runs fused — 44 tasks, Sonnet-4.6 chunk-all grader. Whiskers = 95% bootstrap CI over tasks.</text><line x1="92.0" y1="512.0" x2="860.0" y2="512.0" stroke="#eef0f2" stroke-width="1"/><text x="80" y="517.0" font-size="15" text-anchor="end" fill="#6b7280">45</text><line x1="92.0" y1="429.4" x2="860.0" y2="429.4" stroke="#eef0f2" stroke-width="1"/><text x="80" y="434.4" font-size="15" text-anchor="end" fill="#6b7280">50</text><line x1="92.0" y1="346.8" x2="860.0" y2="346.8" stroke="#eef0f2" stroke-width="1"/><text x="80" y="351.8" font-size="15" text-anchor="end" fill="#6b7280">55</text><line x1="92.0" y1="264.2" x2="860.0" y2="264.2" stroke="#eef0f2" stroke-width="1"/><text x="80" y="269.2" font-size="15" text-anchor="end" fill="#6b7280">60</text><line x1="92.0" y1="181.5" x2="860.0" y2="181.5" stroke="#eef0f2" stroke-width="1"/><text x="80" y="186.5" font-size="15" text-anchor="end" fill="#6b7280">65</text><text x="92.0" y="548.0" font-size="15" text-anchor="middle" fill="#6b7280">1</text><text x="177.3" y="548.0" font-size="15" text-anchor="middle" fill="#6b7280">2</text><text x="262.7" y="548.0" font-size="15" text-anchor="middle" fill="#6b7280">3</text><text x="348.0" y="548.0" font-size="15" text-anchor="middle" fill="#6b7280">4</text><text x="433.3" y="548.0" font-size="15" text-anchor="middle" fill="#6b7280">5</text><text x="518.7" y="548.0" font-size="15" text-anchor="middle" fill="#6b7280">6</text><text x="604.0" y="548.0" font-size="15" text-anchor="middle" fill="#6b7280">7</text><text x="689.3" y="548.0" font-size="15" text-anchor="middle" fill="#6b7280">8</text><text x="774.7" y="548.0" font-size="15" text-anchor="middle" fill="#6b7280">9</text><text x="860.0" y="548.0" font-size="15" text-anchor="middle" fill="#6b7280">10</text><text x="476.0" y="578.0" font-size="16" text-anchor="middle" fill="#111827">number of Haiku runs fused</text><line x1="92.0" y1="346.6" x2="860.0" y2="346.6" stroke="#c23b3b" stroke-width="1.3" stroke-dasharray="6 4"/><text x="868.0" y="351.6" font-size="14" fill="#c23b3b">solo 55.0</text><line x1="92.0" y1="435.5" x2="92.0" y2="263.0" stroke="#1d9e75" stroke-width="2"/><line x1="87.0" y1="435.5" x2="97.0" y2="435.5" stroke="#1d9e75" stroke-width="2"/><line x1="87.0" y1="263.0" x2="97.0" y2="263.0" stroke="#1d9e75" stroke-width="2"/><line x1="177.3" y1="444.9" x2="177.3" y2="275.8" stroke="#1d9e75" stroke-width="2"/><line x1="172.3" y1="444.9" x2="182.3" y2="444.9" stroke="#1d9e75" stroke-width="2"/><line x1="172.3" y1="275.8" x2="182.3" y2="275.8" stroke="#1d9e75" stroke-width="2"/><line x1="262.7" y1="396.4" x2="262.7" y2="213.7" stroke="#1d9e75" stroke-width="2"/><line x1="257.7" y1="396.4" x2="267.7" y2="396.4" stroke="#1d9e75" stroke-width="2"/><line x1="257.7" y1="213.7" x2="267.7" y2="213.7" stroke="#1d9e75" stroke-width="2"/><line x1="348.0" y1="341.3" x2="348.0" y2="159.6" stroke="#1d9e75" stroke-width="2"/><line x1="343.0" y1="341.3" x2="353.0" y2="341.3" stroke="#1d9e75" stroke-width="2"/><line x1="343.0" y1="159.6" x2="353.0" y2="159.6" stroke="#1d9e75" stroke-width="2"/><line x1="433.3" y1="375.3" x2="433.3" y2="199.1" stroke="#1d9e75" stroke-width="2"/><line x1="428.3" y1="375.3" x2="438.3" y2="375.3" stroke="#1d9e75" stroke-width="2"/><line x1="428.3" y1="199.1" x2="438.3" y2="199.1" stroke="#1d9e75" stroke-width="2"/><line x1="518.7" y1="370.1" x2="518.7" y2="186.9" stroke="#1d9e75" stroke-width="2"/><line x1="513.7" y1="370.1" x2="523.7" y2="370.1" stroke="#1d9e75" stroke-width="2"/><line x1="513.7" y1="186.9" x2="523.7" y2="186.9" stroke="#1d9e75" stroke-width="2"/><line x1="604.0" y1="368.4" x2="604.0" y2="180.4" stroke="#1d9e75" stroke-width="2"/><line x1="599.0" y1="368.4" x2="609.0" y2="368.4" stroke="#1d9e75" stroke-width="2"/><line x1="599.0" y1="180.4" x2="609.0" y2="180.4" stroke="#1d9e75" stroke-width="2"/><line x1="689.3" y1="417.9" x2="689.3" y2="227.6" stroke="#1d9e75" stroke-width="2"/><line x1="684.3" y1="417.9" x2="694.3" y2="417.9" stroke="#1d9e75" stroke-width="2"/><line x1="684.3" y1="227.6" x2="694.3" y2="227.6" stroke="#1d9e75" stroke-width="2"/><line x1="774.7" y1="402.0" x2="774.7" y2="200.6" stroke="#1d9e75" stroke-width="2"/><line x1="769.7" y1="402.0" x2="779.7" y2="402.0" stroke="#1d9e75" stroke-width="2"/><line x1="769.7" y1="200.6" x2="779.7" y2="200.6" stroke="#1d9e75" stroke-width="2"/><line x1="860.0" y1="470.4" x2="860.0" y2="260.6" stroke="#1d9e75" stroke-width="2"/><line x1="855.0" y1="470.4" x2="865.0" y2="470.4" stroke="#1d9e75" stroke-width="2"/><line x1="855.0" y1="260.6" x2="865.0" y2="260.6" stroke="#1d9e75" stroke-width="2"/><polyline points="92.0,346.6 177.3,359.9 262.7,303.3 348.0,249.5 433.3,285.6 518.7,275.6 604.0,274.6 689.3,320.7 774.7,297.3 860.0,363.0" fill="none" stroke="#1d9e75" stroke-width="2.5"/><circle cx="92.0" cy="346.6" r="5" fill="#1d9e75"/><text x="92.0" y="334.6" font-size="13" font-weight="600" text-anchor="middle" fill="#0f6e56">55.0</text><circle cx="177.3" cy="359.9" r="5" fill="#1d9e75"/><text x="177.3" y="347.9" font-size="13" font-weight="600" text-anchor="middle" fill="#0f6e56">54.2</text><circle cx="262.7" cy="303.3" r="5" fill="#1d9e75"/><text x="262.7" y="291.3" font-size="13" font-weight="600" text-anchor="middle" fill="#0f6e56">57.6</text><circle cx="348.0" cy="249.5" r="5" fill="#1d9e75"/><text x="348.0" y="237.5" font-size="13" font-weight="600" text-anchor="middle" fill="#0f6e56">60.9</text><circle cx="433.3" cy="285.6" r="5" fill="#1d9e75"/><text x="433.3" y="273.6" font-size="13" font-weight="600" text-anchor="middle" fill="#0f6e56">58.7</text><circle cx="518.7" cy="275.6" r="5" fill="#1d9e75"/><text x="518.7" y="263.6" font-size="13" font-weight="600" text-anchor="middle" fill="#0f6e56">59.3</text><circle cx="604.0" cy="274.6" r="5" fill="#1d9e75"/><text x="604.0" y="262.6" font-size="13" font-weight="600" text-anchor="middle" fill="#0f6e56">59.4</text><circle cx="689.3" cy="320.7" r="5" fill="#1d9e75"/><text x="689.3" y="308.7" font-size="13" font-weight="600" text-anchor="middle" fill="#0f6e56">56.6</text><circle cx="774.7" cy="297.3" r="5" fill="#1d9e75"/><text x="774.7" y="285.3" font-size="13" font-weight="600" text-anchor="middle" fill="#0f6e56">58.0</text><circle cx="860.0" cy="363.0" r="5" fill="#1d9e75"/><text x="860.0" y="351.0" font-size="13" font-weight="600" text-anchor="middle" fill="#0f6e56">54.0</text></svg>