<svg xmlns="http://www.w3.org/2000/svg" viewBox="0 0 1120 610" width="100%" style="height:auto" font-family="Inter,Arial,sans-serif"><rect width="1120" height="610" fill="#ffffff"/><text x="48" y="44" font-size="29" font-weight="700" fill="#111827">Haiku self-fusion: flat, and underpowered</text><text x="48" y="74" font-size="16.5" fill="#6b7280">DRACO vs Haiku runs fused — 8 tasks, Sonnet-4.6 chunk-all grader. Whiskers = 95% bootstrap CI over tasks (B=20k). CIs overlap: no resolvable trend.</text><line x1="92.0" y1="501.4" x2="860.0" y2="501.4" stroke="#eef0f2" stroke-width="1"/><text x="80" y="506.4" font-size="15" text-anchor="end" fill="#6b7280">40</text><line x1="92.0" y1="454.8" x2="860.0" y2="454.8" stroke="#eef0f2" stroke-width="1"/><text x="80" y="459.8" font-size="15" text-anchor="end" fill="#6b7280">45</text><line x1="92.0" y1="408.2" x2="860.0" y2="408.2" stroke="#eef0f2" stroke-width="1"/><text x="80" y="413.2" font-size="15" text-anchor="end" fill="#6b7280">50</text><line x1="92.0" y1="361.6" x2="860.0" y2="361.6" stroke="#eef0f2" stroke-width="1"/><text x="80" y="366.6" font-size="15" text-anchor="end" fill="#6b7280">55</text><line x1="92.0" y1="315.0" x2="860.0" y2="315.0" stroke="#eef0f2" stroke-width="1"/><text x="80" y="320.0" font-size="15" text-anchor="end" fill="#6b7280">60</text><line x1="92.0" y1="268.4" x2="860.0" y2="268.4" stroke="#eef0f2" stroke-width="1"/><text x="80" y="273.4" font-size="15" text-anchor="end" fill="#6b7280">65</text><line x1="92.0" y1="221.8" x2="860.0" y2="221.8" stroke="#eef0f2" stroke-width="1"/><text x="80" y="226.8" font-size="15" text-anchor="end" fill="#6b7280">70</text><line x1="92.0" y1="175.2" x2="860.0" y2="175.2" stroke="#eef0f2" stroke-width="1"/><text x="80" y="180.2" font-size="15" text-anchor="end" fill="#6b7280">75</text><line x1="92.0" y1="128.6" x2="860.0" y2="128.6" stroke="#eef0f2" stroke-width="1"/><text x="80" y="133.6" font-size="15" text-anchor="end" fill="#6b7280">80</text><text x="92.0" y="548.0" font-size="15" text-anchor="middle" fill="#6b7280">1</text><text x="177.3" y="548.0" font-size="15" text-anchor="middle" fill="#6b7280">2</text><text x="262.7" y="548.0" font-size="15" text-anchor="middle" fill="#6b7280">3</text><text x="348.0" y="548.0" font-size="15" text-anchor="middle" fill="#6b7280">4</text><text x="433.3" y="548.0" font-size="15" text-anchor="middle" fill="#6b7280">5</text><text x="518.7" y="548.0" font-size="15" text-anchor="middle" fill="#6b7280">6</text><text x="604.0" y="548.0" font-size="15" text-anchor="middle" fill="#6b7280">7</text><text x="689.3" y="548.0" font-size="15" text-anchor="middle" fill="#6b7280">8</text><text x="774.7" y="548.0" font-size="15" text-anchor="middle" fill="#6b7280">9</text><text x="860.0" y="548.0" font-size="15" text-anchor="middle" fill="#6b7280">10</text><text x="476.0" y="578.0" font-size="16" text-anchor="middle" fill="#111827">number of Haiku runs fused</text><line x1="92.0" y1="294.7" x2="860.0" y2="294.7" stroke="#c23b3b" stroke-width="1.3" stroke-dasharray="6 4"/><text x="868.0" y="299.7" font-size="14" fill="#c23b3b">solo 62.2</text><line x1="92.0" y1="411.3" x2="92.0" y2="187.3" stroke="#1d9e75" stroke-width="2"/><line x1="87.0" y1="411.3" x2="97.0" y2="411.3" stroke="#1d9e75" stroke-width="2"/><line x1="87.0" y1="187.3" x2="97.0" y2="187.3" stroke="#1d9e75" stroke-width="2"/><line x1="177.3" y1="487.8" x2="177.3" y2="246.2" stroke="#1d9e75" stroke-width="2"/><line x1="172.3" y1="487.8" x2="182.3" y2="487.8" stroke="#1d9e75" stroke-width="2"/><line x1="172.3" y1="246.2" x2="182.3" y2="246.2" stroke="#1d9e75" stroke-width="2"/><line x1="262.7" y1="436.9" x2="262.7" y2="210.3" stroke="#1d9e75" stroke-width="2"/><line x1="257.7" y1="436.9" x2="267.7" y2="436.9" stroke="#1d9e75" stroke-width="2"/><line x1="257.7" y1="210.3" x2="267.7" y2="210.3" stroke="#1d9e75" stroke-width="2"/><line x1="348.0" y1="434.6" x2="348.0" y2="135.6" stroke="#1d9e75" stroke-width="2"/><line x1="343.0" y1="434.6" x2="353.0" y2="434.6" stroke="#1d9e75" stroke-width="2"/><line x1="343.0" y1="135.6" x2="353.0" y2="135.6" stroke="#1d9e75" stroke-width="2"/><line x1="433.3" y1="437.7" x2="433.3" y2="211.6" stroke="#1d9e75" stroke-width="2"/><line x1="428.3" y1="437.7" x2="438.3" y2="437.7" stroke="#1d9e75" stroke-width="2"/><line x1="428.3" y1="211.6" x2="438.3" y2="211.6" stroke="#1d9e75" stroke-width="2"/><line x1="518.7" y1="451.9" x2="518.7" y2="205.0" stroke="#1d9e75" stroke-width="2"/><line x1="513.7" y1="451.9" x2="523.7" y2="451.9" stroke="#1d9e75" stroke-width="2"/><line x1="513.7" y1="205.0" x2="523.7" y2="205.0" stroke="#1d9e75" stroke-width="2"/><line x1="604.0" y1="454.0" x2="604.0" y2="184.3" stroke="#1d9e75" stroke-width="2"/><line x1="599.0" y1="454.0" x2="609.0" y2="454.0" stroke="#1d9e75" stroke-width="2"/><line x1="599.0" y1="184.3" x2="609.0" y2="184.3" stroke="#1d9e75" stroke-width="2"/><line x1="689.3" y1="470.2" x2="689.3" y2="226.3" stroke="#1d9e75" stroke-width="2"/><line x1="684.3" y1="470.2" x2="694.3" y2="470.2" stroke="#1d9e75" stroke-width="2"/><line x1="684.3" y1="226.3" x2="694.3" y2="226.3" stroke="#1d9e75" stroke-width="2"/><line x1="774.7" y1="466.5" x2="774.7" y2="230.7" stroke="#1d9e75" stroke-width="2"/><line x1="769.7" y1="466.5" x2="779.7" y2="466.5" stroke="#1d9e75" stroke-width="2"/><line x1="769.7" y1="230.7" x2="779.7" y2="230.7" stroke="#1d9e75" stroke-width="2"/><line x1="860.0" y1="462.4" x2="860.0" y2="209.5" stroke="#1d9e75" stroke-width="2"/><line x1="855.0" y1="462.4" x2="865.0" y2="462.4" stroke="#1d9e75" stroke-width="2"/><line x1="855.0" y1="209.5" x2="865.0" y2="209.5" stroke="#1d9e75" stroke-width="2"/><polyline points="92.0,294.7 177.3,366.2 262.7,319.6 348.0,276.4 433.3,322.4 518.7,326.0 604.0,313.0 689.3,349.5 774.7,342.7 860.0,326.1" fill="none" stroke="#1d9e75" stroke-width="2.5"/><circle cx="92.0" cy="294.7" r="5" fill="#1d9e75"/><text x="92.0" y="282.7" font-size="13" font-weight="600" text-anchor="middle" fill="#0f6e56">62.2</text><circle cx="177.3" cy="366.2" r="5" fill="#1d9e75"/><text x="177.3" y="354.2" font-size="13" font-weight="600" text-anchor="middle" fill="#0f6e56">54.5</text><circle cx="262.7" cy="319.6" r="5" fill="#1d9e75"/><text x="262.7" y="307.6" font-size="13" font-weight="600" text-anchor="middle" fill="#0f6e56">59.5</text><circle cx="348.0" cy="276.4" r="5" fill="#1d9e75"/><text x="348.0" y="264.4" font-size="13" font-weight="600" text-anchor="middle" fill="#0f6e56">64.1</text><circle cx="433.3" cy="322.4" r="5" fill="#1d9e75"/><text x="433.3" y="310.4" font-size="13" font-weight="600" text-anchor="middle" fill="#0f6e56">59.2</text><circle cx="518.7" cy="326.0" r="5" fill="#1d9e75"/><text x="518.7" y="314.0" font-size="13" font-weight="600" text-anchor="middle" fill="#0f6e56">58.8</text><circle cx="604.0" cy="313.0" r="5" fill="#1d9e75"/><text x="604.0" y="301.0" font-size="13" font-weight="600" text-anchor="middle" fill="#0f6e56">60.2</text><circle cx="689.3" cy="349.5" r="5" fill="#1d9e75"/><text x="689.3" y="337.5" font-size="13" font-weight="600" text-anchor="middle" fill="#0f6e56">56.3</text><circle cx="774.7" cy="342.7" r="5" fill="#1d9e75"/><text x="774.7" y="330.7" font-size="13" font-weight="600" text-anchor="middle" fill="#0f6e56">57.0</text><circle cx="860.0" cy="326.1" r="5" fill="#1d9e75"/><text x="860.0" y="314.1" font-size="13" font-weight="600" text-anchor="middle" fill="#0f6e56">58.8</text></svg>