<svg xmlns="http://www.w3.org/2000/svg" viewBox="0 0 1120 610" width="100%" style="height:auto" font-family="Inter,Arial,sans-serif"><rect width="1120" height="610" fill="#ffffff"/><text x="48" y="44" font-size="28" font-weight="700" fill="#111827">Sonnet fuser climbs, Haiku barely moves</text><text x="48" y="73" font-size="16" fill="#6b7280">19 shared tasks, same Sonnet-4.6 grader. Whiskers = 95% bootstrap CI over tasks (B=20k).</text><line x1="92.0" y1="478.1" x2="840.0" y2="478.1" stroke="#eef0f2" stroke-width="1"/><text x="80" y="483.1" font-size="14" text-anchor="end" fill="#6b7280">50</text><line x1="92.0" y1="425.5" x2="840.0" y2="425.5" stroke="#eef0f2" stroke-width="1"/><text x="80" y="430.5" font-size="14" text-anchor="end" fill="#6b7280">55</text><line x1="92.0" y1="372.9" x2="840.0" y2="372.9" stroke="#eef0f2" stroke-width="1"/><text x="80" y="377.9" font-size="14" text-anchor="end" fill="#6b7280">60</text><line x1="92.0" y1="320.4" x2="840.0" y2="320.4" stroke="#eef0f2" stroke-width="1"/><text x="80" y="325.4" font-size="14" text-anchor="end" fill="#6b7280">65</text><line x1="92.0" y1="267.8" x2="840.0" y2="267.8" stroke="#eef0f2" stroke-width="1"/><text x="80" y="272.8" font-size="14" text-anchor="end" fill="#6b7280">70</text><line x1="92.0" y1="215.2" x2="840.0" y2="215.2" stroke="#eef0f2" stroke-width="1"/><text x="80" y="220.2" font-size="14" text-anchor="end" fill="#6b7280">75</text><line x1="92.0" y1="162.6" x2="840.0" y2="162.6" stroke="#eef0f2" stroke-width="1"/><text x="80" y="167.6" font-size="14" text-anchor="end" fill="#6b7280">80</text><line x1="92.0" y1="110.1" x2="840.0" y2="110.1" stroke="#eef0f2" stroke-width="1"/><text x="80" y="115.1" font-size="14" text-anchor="end" fill="#6b7280">85</text><text x="92.0" y="548.0" font-size="15" text-anchor="middle" fill="#6b7280">1</text><text x="175.1" y="548.0" font-size="15" text-anchor="middle" fill="#6b7280">2</text><text x="258.2" y="548.0" font-size="15" text-anchor="middle" fill="#6b7280">3</text><text x="341.3" y="548.0" font-size="15" text-anchor="middle" fill="#6b7280">4</text><text x="424.4" y="548.0" font-size="15" text-anchor="middle" fill="#6b7280">5</text><text x="507.6" y="548.0" font-size="15" text-anchor="middle" fill="#6b7280">6</text><text x="590.7" y="548.0" font-size="15" text-anchor="middle" fill="#6b7280">7</text><text x="673.8" y="548.0" font-size="15" text-anchor="middle" fill="#6b7280">8</text><text x="756.9" y="548.0" font-size="15" text-anchor="middle" fill="#6b7280">9</text><text x="840.0" y="548.0" font-size="15" text-anchor="middle" fill="#6b7280">10</text><text x="466.0" y="578.0" font-size="16" text-anchor="middle" fill="#111827">number of runs fused</text><line x1="88.0" y1="436.4" x2="88.0" y2="299.2" stroke="#D85A30" stroke-width="1.6" stroke-opacity="0.55"/><line x1="84.0" y1="436.4" x2="92.0" y2="436.4" stroke="#D85A30" stroke-width="1.6" stroke-opacity="0.55"/><line x1="84.0" y1="299.2" x2="92.0" y2="299.2" stroke="#D85A30" stroke-width="1.6" stroke-opacity="0.55"/><line x1="171.1" y1="488.5" x2="171.1" y2="338.8" stroke="#D85A30" stroke-width="1.6" stroke-opacity="0.55"/><line x1="167.1" y1="488.5" x2="175.1" y2="488.5" stroke="#D85A30" stroke-width="1.6" stroke-opacity="0.55"/><line x1="167.1" y1="338.8" x2="175.1" y2="338.8" stroke="#D85A30" stroke-width="1.6" stroke-opacity="0.55"/><line x1="254.2" y1="467.7" x2="254.2" y2="306.7" stroke="#D85A30" stroke-width="1.6" stroke-opacity="0.55"/><line x1="250.2" y1="467.7" x2="258.2" y2="467.7" stroke="#D85A30" stroke-width="1.6" stroke-opacity="0.55"/><line x1="250.2" y1="306.7" x2="258.2" y2="306.7" stroke="#D85A30" stroke-width="1.6" stroke-opacity="0.55"/><line x1="337.3" y1="433.2" x2="337.3" y2="261.4" stroke="#D85A30" stroke-width="1.6" stroke-opacity="0.55"/><line x1="333.3" y1="433.2" x2="341.3" y2="433.2" stroke="#D85A30" stroke-width="1.6" stroke-opacity="0.55"/><line x1="333.3" y1="261.4" x2="341.3" y2="261.4" stroke="#D85A30" stroke-width="1.6" stroke-opacity="0.55"/><line x1="420.4" y1="467.2" x2="420.4" y2="317.2" stroke="#D85A30" stroke-width="1.6" stroke-opacity="0.55"/><line x1="416.4" y1="467.2" x2="424.4" y2="467.2" stroke="#D85A30" stroke-width="1.6" stroke-opacity="0.55"/><line x1="416.4" y1="317.2" x2="424.4" y2="317.2" stroke="#D85A30" stroke-width="1.6" stroke-opacity="0.55"/><line x1="503.6" y1="461.5" x2="503.6" y2="289.3" stroke="#D85A30" stroke-width="1.6" stroke-opacity="0.55"/><line x1="499.6" y1="461.5" x2="507.6" y2="461.5" stroke="#D85A30" stroke-width="1.6" stroke-opacity="0.55"/><line x1="499.6" y1="289.3" x2="507.6" y2="289.3" stroke="#D85A30" stroke-width="1.6" stroke-opacity="0.55"/><line x1="586.7" y1="458.3" x2="586.7" y2="284.4" stroke="#D85A30" stroke-width="1.6" stroke-opacity="0.55"/><line x1="582.7" y1="458.3" x2="590.7" y2="458.3" stroke="#D85A30" stroke-width="1.6" stroke-opacity="0.55"/><line x1="582.7" y1="284.4" x2="590.7" y2="284.4" stroke="#D85A30" stroke-width="1.6" stroke-opacity="0.55"/><line x1="669.8" y1="486.2" x2="669.8" y2="311.6" stroke="#D85A30" stroke-width="1.6" stroke-opacity="0.55"/><line x1="665.8" y1="486.2" x2="673.8" y2="486.2" stroke="#D85A30" stroke-width="1.6" stroke-opacity="0.55"/><line x1="665.8" y1="311.6" x2="673.8" y2="311.6" stroke="#D85A30" stroke-width="1.6" stroke-opacity="0.55"/><line x1="752.9" y1="438.4" x2="752.9" y2="287.7" stroke="#D85A30" stroke-width="1.6" stroke-opacity="0.55"/><line x1="748.9" y1="438.4" x2="756.9" y2="438.4" stroke="#D85A30" stroke-width="1.6" stroke-opacity="0.55"/><line x1="748.9" y1="287.7" x2="756.9" y2="287.7" stroke="#D85A30" stroke-width="1.6" stroke-opacity="0.55"/><line x1="836.0" y1="475.1" x2="836.0" y2="306.1" stroke="#D85A30" stroke-width="1.6" stroke-opacity="0.55"/><line x1="832.0" y1="475.1" x2="840.0" y2="475.1" stroke="#D85A30" stroke-width="1.6" stroke-opacity="0.55"/><line x1="832.0" y1="306.1" x2="840.0" y2="306.1" stroke="#D85A30" stroke-width="1.6" stroke-opacity="0.55"/><polyline points="88.0,368.0 171.1,413.1 254.2,387.8 337.3,344.4 420.4,391.4 503.6,373.9 586.7,369.4 669.8,398.1 752.9,360.2 836.0,387.9" fill="none" stroke="#D85A30" stroke-width="2.8"/><circle cx="88.0" cy="368.0" r="4.5" fill="#D85A30"/><circle cx="171.1" cy="413.1" r="4.5" fill="#D85A30"/><circle cx="254.2" cy="387.8" r="4.5" fill="#D85A30"/><circle cx="337.3" cy="344.4" r="4.5" fill="#D85A30"/><circle cx="420.4" cy="391.4" r="4.5" fill="#D85A30"/><circle cx="503.6" cy="373.9" r="4.5" fill="#D85A30"/><circle cx="586.7" cy="369.4" r="4.5" fill="#D85A30"/><circle cx="669.8" cy="398.1" r="4.5" fill="#D85A30"/><circle cx="752.9" cy="360.2" r="4.5" fill="#D85A30"/><circle cx="836.0" cy="387.9" r="4.5" fill="#D85A30"/><line x1="96.0" y1="365.7" x2="96.0" y2="247.3" stroke="#1D9E75" stroke-width="1.6" stroke-opacity="0.55"/><line x1="92.0" y1="365.7" x2="100.0" y2="365.7" stroke="#1D9E75" stroke-width="1.6" stroke-opacity="0.55"/><line x1="92.0" y1="247.3" x2="100.0" y2="247.3" stroke="#1D9E75" stroke-width="1.6" stroke-opacity="0.55"/><line x1="179.1" y1="330.1" x2="179.1" y2="217.7" stroke="#1D9E75" stroke-width="1.6" stroke-opacity="0.55"/><line x1="175.1" y1="330.1" x2="183.1" y2="330.1" stroke="#1D9E75" stroke-width="1.6" stroke-opacity="0.55"/><line x1="175.1" y1="217.7" x2="183.1" y2="217.7" stroke="#1D9E75" stroke-width="1.6" stroke-opacity="0.55"/><line x1="262.2" y1="316.9" x2="262.2" y2="181.3" stroke="#1D9E75" stroke-width="1.6" stroke-opacity="0.55"/><line x1="258.2" y1="316.9" x2="266.2" y2="316.9" stroke="#1D9E75" stroke-width="1.6" stroke-opacity="0.55"/><line x1="258.2" y1="181.3" x2="266.2" y2="181.3" stroke="#1D9E75" stroke-width="1.6" stroke-opacity="0.55"/><line x1="345.3" y1="296.1" x2="345.3" y2="168.9" stroke="#1D9E75" stroke-width="1.6" stroke-opacity="0.55"/><line x1="341.3" y1="296.1" x2="349.3" y2="296.1" stroke="#1D9E75" stroke-width="1.6" stroke-opacity="0.55"/><line x1="341.3" y1="168.9" x2="349.3" y2="168.9" stroke="#1D9E75" stroke-width="1.6" stroke-opacity="0.55"/><line x1="428.4" y1="286.2" x2="428.4" y2="162.3" stroke="#1D9E75" stroke-width="1.6" stroke-opacity="0.55"/><line x1="424.4" y1="286.2" x2="432.4" y2="286.2" stroke="#1D9E75" stroke-width="1.6" stroke-opacity="0.55"/><line x1="424.4" y1="162.3" x2="432.4" y2="162.3" stroke="#1D9E75" stroke-width="1.6" stroke-opacity="0.55"/><line x1="511.6" y1="298.4" x2="511.6" y2="168.7" stroke="#1D9E75" stroke-width="1.6" stroke-opacity="0.55"/><line x1="507.6" y1="298.4" x2="515.6" y2="298.4" stroke="#1D9E75" stroke-width="1.6" stroke-opacity="0.55"/><line x1="507.6" y1="168.7" x2="515.6" y2="168.7" stroke="#1D9E75" stroke-width="1.6" stroke-opacity="0.55"/><line x1="594.7" y1="283.2" x2="594.7" y2="151.5" stroke="#1D9E75" stroke-width="1.6" stroke-opacity="0.55"/><line x1="590.7" y1="283.2" x2="598.7" y2="283.2" stroke="#1D9E75" stroke-width="1.6" stroke-opacity="0.55"/><line x1="590.7" y1="151.5" x2="598.7" y2="151.5" stroke="#1D9E75" stroke-width="1.6" stroke-opacity="0.55"/><line x1="677.8" y1="298.0" x2="677.8" y2="169.5" stroke="#1D9E75" stroke-width="1.6" stroke-opacity="0.55"/><line x1="673.8" y1="298.0" x2="681.8" y2="298.0" stroke="#1D9E75" stroke-width="1.6" stroke-opacity="0.55"/><line x1="673.8" y1="169.5" x2="681.8" y2="169.5" stroke="#1D9E75" stroke-width="1.6" stroke-opacity="0.55"/><line x1="760.9" y1="272.6" x2="760.9" y2="141.5" stroke="#1D9E75" stroke-width="1.6" stroke-opacity="0.55"/><line x1="756.9" y1="272.6" x2="764.9" y2="272.6" stroke="#1D9E75" stroke-width="1.6" stroke-opacity="0.55"/><line x1="756.9" y1="141.5" x2="764.9" y2="141.5" stroke="#1D9E75" stroke-width="1.6" stroke-opacity="0.55"/><line x1="844.0" y1="284.2" x2="844.0" y2="153.2" stroke="#1D9E75" stroke-width="1.6" stroke-opacity="0.55"/><line x1="840.0" y1="284.2" x2="848.0" y2="284.2" stroke="#1D9E75" stroke-width="1.6" stroke-opacity="0.55"/><line x1="840.0" y1="153.2" x2="848.0" y2="153.2" stroke="#1D9E75" stroke-width="1.6" stroke-opacity="0.55"/><polyline points="96.0,304.2 179.1,272.8 262.2,246.1 345.3,229.7 428.4,222.8 511.6,231.6 594.7,213.8 677.8,231.5 760.9,205.2 844.0,215.9" fill="none" stroke="#1D9E75" stroke-width="2.8"/><circle cx="96.0" cy="304.2" r="4.5" fill="#1D9E75"/><circle cx="179.1" cy="272.8" r="4.5" fill="#1D9E75"/><circle cx="262.2" cy="246.1" r="4.5" fill="#1D9E75"/><circle cx="345.3" cy="229.7" r="4.5" fill="#1D9E75"/><circle cx="428.4" cy="222.8" r="4.5" fill="#1D9E75"/><circle cx="511.6" cy="231.6" r="4.5" fill="#1D9E75"/><circle cx="594.7" cy="213.8" r="4.5" fill="#1D9E75"/><circle cx="677.8" cy="231.5" r="4.5" fill="#1D9E75"/><circle cx="760.9" cy="205.2" r="4.5" fill="#1D9E75"/><circle cx="844.0" cy="215.9" r="4.5" fill="#1D9E75"/><text x="850.0" y="219.9" font-size="15" font-weight="600" fill="#0F6E56">Sonnet</text><text x="850.0" y="391.9" font-size="15" font-weight="600" fill="#993C1D">Haiku</text></svg>