<svg xmlns="http://www.w3.org/2000/svg" viewBox="0 0 1120 600" width="100%" style="height:auto" font-family="Inter,Arial,sans-serif"><rect width="1120" height="600" fill="#ffffff"/><text x="48" y="48" font-size="30" font-weight="700" fill="#111827">How many copies do you need?</text><text x="48" y="78" font-size="18" fill="#6b7280">DRACO score vs number of MiniMax-M3 runs fused (same gemini-3.1-pro judge, 100 tasks each)</text><line x1="92" y1="514.0" x2="870" y2="514.0" stroke="#eef0f2" stroke-width="1"/><text x="80" y="519.0" font-size="15" text-anchor="end" fill="#6b7280">64</text><line x1="92" y1="409.5" x2="870" y2="409.5" stroke="#eef0f2" stroke-width="1"/><text x="80" y="414.5" font-size="15" text-anchor="end" fill="#6b7280">66</text><line x1="92" y1="305.0" x2="870" y2="305.0" stroke="#eef0f2" stroke-width="1"/><text x="80" y="310.0" font-size="15" text-anchor="end" fill="#6b7280">68</text><line x1="92" y1="200.5" x2="870" y2="200.5" stroke="#eef0f2" stroke-width="1"/><text x="80" y="205.5" font-size="15" text-anchor="end" fill="#6b7280">70</text><line x1="92" y1="96.0" x2="870" y2="96.0" stroke="#eef0f2" stroke-width="1"/><text x="80" y="101.0" font-size="15" text-anchor="end" fill="#6b7280">72</text><line x1="92" y1="116.9" x2="870" y2="116.9" stroke="#9a9890" stroke-width="1.5" stroke-dasharray="6 4"/><text x="880" y="121.9" font-size="14.5" fill="#9a9890">Frontier panel (5 different models) 71.6</text><line x1="92" y1="205.7" x2="870" y2="205.7" stroke="#9a9890" stroke-width="1.5" stroke-dasharray="6 4"/><text x="880" y="210.7" font-size="14.5" fill="#9a9890">All-open panel (5 different open) 69.9</text><line x1="92" y1="446.1" x2="870" y2="446.1" stroke="#c23b3b" stroke-width="1.5" stroke-dasharray="6 4"/><text x="880" y="451.1" font-size="14.5" fill="#c23b3b">Fable 5 solo 65.3</text><text x="92.0" y="542.0" font-size="15" text-anchor="middle" fill="#6b7280">1</text><text x="178.4" y="542.0" font-size="15" text-anchor="middle" fill="#6b7280">2</text><text x="264.9" y="542.0" font-size="15" text-anchor="middle" fill="#6b7280">3</text><text x="351.3" y="542.0" font-size="15" text-anchor="middle" fill="#6b7280">4</text><text x="437.8" y="542.0" font-size="15" text-anchor="middle" fill="#6b7280">5</text><text x="524.2" y="542.0" font-size="15" text-anchor="middle" fill="#6b7280">6</text><text x="610.7" y="542.0" font-size="15" text-anchor="middle" fill="#6b7280">7</text><text x="697.1" y="542.0" font-size="15" text-anchor="middle" fill="#6b7280">8</text><text x="783.6" y="542.0" font-size="15" text-anchor="middle" fill="#6b7280">9</text><text x="870.0" y="542.0" font-size="15" text-anchor="middle" fill="#6b7280">10</text><text x="481.0" y="572.0" font-size="16" text-anchor="middle" fill="#111827">number of M3 runs fused</text><polyline points="92.0,399.0 178.4,404.3 264.9,320.7 351.3,300.3 437.8,297.7 524.2,291.9 610.7,226.6 697.1,240.2 783.6,285.7 870.0,232.4" fill="none" stroke="#1d9e75" stroke-width="3"/><circle cx="92.0" cy="399.0" r="5.5" fill="#1d9e75"/><text x="92.0" y="385.0" font-size="14" font-weight="600" text-anchor="middle" fill="#111827">66.2</text><circle cx="178.4" cy="404.3" r="5.5" fill="#1d9e75"/><text x="178.4" y="426.3" font-size="14" font-weight="600" text-anchor="middle" fill="#111827">66.1</text><circle cx="264.9" cy="320.7" r="5.5" fill="#1d9e75"/><text x="264.9" y="306.7" font-size="14" font-weight="600" text-anchor="middle" fill="#111827">67.7</text><circle cx="351.3" cy="300.3" r="5.5" fill="#1d9e75"/><text x="351.3" y="286.3" font-size="14" font-weight="600" text-anchor="middle" fill="#111827">68.1</text><circle cx="437.8" cy="297.7" r="5.5" fill="#1d9e75"/><text x="437.8" y="283.7" font-size="14" font-weight="600" text-anchor="middle" fill="#111827">68.1</text><circle cx="524.2" cy="291.9" r="5.5" fill="#1d9e75"/><text x="524.2" y="277.9" font-size="14" font-weight="600" text-anchor="middle" fill="#111827">68.2</text><circle cx="610.7" cy="226.6" r="5.5" fill="#1d9e75"/><text x="610.7" y="212.6" font-size="14" font-weight="600" text-anchor="middle" fill="#111827">69.5</text><circle cx="697.1" cy="240.2" r="5.5" fill="#1d9e75"/><text x="697.1" y="226.2" font-size="14" font-weight="600" text-anchor="middle" fill="#111827">69.2</text><circle cx="783.6" cy="285.7" r="5.5" fill="#1d9e75"/><text x="783.6" y="271.7" font-size="14" font-weight="600" text-anchor="middle" fill="#111827">68.4</text><circle cx="870.0" cy="232.4" r="5.5" fill="#1d9e75"/><text x="870.0" y="218.4" font-size="14" font-weight="600" text-anchor="middle" fill="#111827">69.4</text><text x="178.4" y="448.3" font-size="13.5" text-anchor="middle" fill="#6b7280">two runs: no gain</text></svg>