<svg xmlns="http://www.w3.org/2000/svg" viewBox="0 0 760 460" width="100%" style="height:auto" font-family="Inter,Arial,sans-serif"><rect width="760" height="460" fill="#ffffff"/><text x="44" y="40" font-size="25" font-weight="700" fill="#111827">The synthesizer is the lever, not the judge</text><text x="44" y="68" font-size="15" fill="#6b7280">DRACO self-fusion gain (mean N&#8805;2 &#8722; N=1), same Sonnet drafts, 23 shared tasks. Whiskers = 95% bootstrap CI.</text><line x1="90.0" y1="380.0" x2="700.0" y2="380.0" stroke="#eef0f2" stroke-width="1"/><text x="80.0" y="385.0" font-size="13" text-anchor="end" fill="#6b7280">-3</text><line x1="90.0" y1="331.7" x2="700.0" y2="331.7" stroke="#eef0f2" stroke-width="1"/><text x="80.0" y="336.7" font-size="13" text-anchor="end" fill="#6b7280">+0</text><line x1="90.0" y1="283.3" x2="700.0" y2="283.3" stroke="#eef0f2" stroke-width="1"/><text x="80.0" y="288.3" font-size="13" text-anchor="end" fill="#6b7280">+3</text><line x1="90.0" y1="235.0" x2="700.0" y2="235.0" stroke="#eef0f2" stroke-width="1"/><text x="80.0" y="240.0" font-size="13" text-anchor="end" fill="#6b7280">+6</text><line x1="90.0" y1="186.7" x2="700.0" y2="186.7" stroke="#eef0f2" stroke-width="1"/><text x="80.0" y="191.7" font-size="13" text-anchor="end" fill="#6b7280">+9</text><line x1="90.0" y1="138.3" x2="700.0" y2="138.3" stroke="#eef0f2" stroke-width="1"/><text x="80.0" y="143.3" font-size="13" text-anchor="end" fill="#6b7280">+12</text><line x1="90.0" y1="90.0" x2="700.0" y2="90.0" stroke="#eef0f2" stroke-width="1"/><text x="80.0" y="95.0" font-size="13" text-anchor="end" fill="#6b7280">+15</text><line x1="90.0" y1="331.7" x2="700.0" y2="331.7" stroke="#9ca3af" stroke-width="1.4"/><rect x="139.5" y="202.5" width="96" height="129.1" fill="#185FA5" rx="3"/><line x1="187.5" y1="257.8" x2="187.5" y2="149.0" stroke="#374151" stroke-width="1.6"/><line x1="181.5" y1="257.8" x2="193.5" y2="257.8" stroke="#374151" stroke-width="1.6"/><line x1="181.5" y1="149.0" x2="193.5" y2="149.0" stroke="#374151" stroke-width="1.6"/><text x="187.5" y="141.0" font-size="15" font-weight="700" text-anchor="middle" fill="#185FA5">+8.0</text><text x="187.5" y="402.0" font-size="12.5" text-anchor="middle" fill="#374151">Sonnet judge</text><rect x="249.5" y="182.8" width="96" height="148.8" fill="#D85A30" rx="3"/><line x1="297.5" y1="253.5" x2="297.5" y2="105.2" stroke="#374151" stroke-width="1.6"/><line x1="291.5" y1="253.5" x2="303.5" y2="253.5" stroke="#374151" stroke-width="1.6"/><line x1="291.5" y1="105.2" x2="303.5" y2="105.2" stroke="#374151" stroke-width="1.6"/><text x="297.5" y="97.2" font-size="15" font-weight="700" text-anchor="middle" fill="#D85A30">+9.2</text><text x="297.5" y="402.0" font-size="12.5" text-anchor="middle" fill="#374151">Haiku judge</text><text x="242.5" y="426.0" font-size="15" font-weight="600" text-anchor="middle" fill="#111827">Sonnet synthesizer</text><rect x="444.5" y="261.4" width="96" height="70.3" fill="#185FA5" rx="3"/><line x1="492.5" y1="330.0" x2="492.5" y2="195.4" stroke="#374151" stroke-width="1.6"/><line x1="486.5" y1="330.0" x2="498.5" y2="330.0" stroke="#374151" stroke-width="1.6"/><line x1="486.5" y1="195.4" x2="498.5" y2="195.4" stroke="#374151" stroke-width="1.6"/><text x="492.5" y="187.4" font-size="15" font-weight="700" text-anchor="middle" fill="#185FA5">+4.4</text><text x="492.5" y="402.0" font-size="12.5" text-anchor="middle" fill="#374151">Sonnet judge</text><rect x="554.5" y="295.9" width="96" height="35.7" fill="#D85A30" rx="3"/><line x1="602.5" y1="363.9" x2="602.5" y2="223.0" stroke="#374151" stroke-width="1.6"/><line x1="596.5" y1="363.9" x2="608.5" y2="363.9" stroke="#374151" stroke-width="1.6"/><line x1="596.5" y1="223.0" x2="608.5" y2="223.0" stroke="#374151" stroke-width="1.6"/><text x="602.5" y="215.0" font-size="15" font-weight="700" text-anchor="middle" fill="#D85A30">+2.2</text><text x="602.5" y="402.0" font-size="12.5" text-anchor="middle" fill="#374151">Haiku judge</text><text x="547.5" y="426.0" font-size="15" font-weight="600" text-anchor="middle" fill="#111827">Haiku synthesizer</text></svg>