<svg xmlns="http://www.w3.org/2000/svg" viewBox="0 0 1200 630" width="1200" height="630" font-family="Inter,Arial,sans-serif"><rect width="1200" height="630" fill="#ffffff"/><rect x="0" y="0" width="14" height="630" fill="#1D9E75"/><text x="70" y="160" font-size="32" font-weight="700" fill="#0F6E56">SELF-FUSION ON DRACO</text><text x="68" y="258" font-size="66" font-weight="800" fill="#111827">Fusion works now —</text><text x="68" y="332" font-size="66" font-weight="800" fill="#111827">even with one model</text><text x="70" y="410" font-size="29" fill="#6b7280">Sonnet self-fuses +8.0 (significant).</text><text x="70" y="448" font-size="29" fill="#6b7280">Haiku only +2.6 — the fuser must be strong.</text><text x="70" y="560" font-size="24" fill="#9a9890">Claude Haiku 4.5 (n=44) vs Sonnet 4.6 (n=23) · trustedrouter.com</text><line x1="700" y1="520" x2="1140" y2="520" stroke="#e5e7eb" stroke-width="2"/><polyline points="700,482 749,492 798,450 847,409 896,436 944,429 993,428 1042,463 1091,445 1140,495" fill="none" stroke="#D85A30" stroke-width="5"/><text x="1146" y="501" font-size="25" font-weight="700" fill="#993C1D">Haiku</text><polyline points="700,344 749,290 798,258 847,245 896,237 944,252 993,222 1042,245 1091,218 1140,227" fill="none" stroke="#1D9E75" stroke-width="5"/><text x="1146" y="233" font-size="25" font-weight="700" fill="#0F6E56">Sonnet</text></svg>