<svg xmlns="http://www.w3.org/2000/svg" viewBox="0 0 1200 630" width="1200" height="630" font-family="Inter,Arial,sans-serif"><rect width="1200" height="630" fill="#ffffff"/><rect x="0" y="0" width="14" height="630" fill="#1D9E75"/><text x="70" y="165" font-size="34" font-weight="700" fill="#0F6E56">SELF-FUSION ON DRACO</text><text x="68" y="265" font-size="74" font-weight="800" fill="#111827">Fusing pays the</text><text x="68" y="345" font-size="74" font-weight="800" fill="#111827">smart model more</text><text x="70" y="420" font-size="30" fill="#6b7280">Sonnet +8.0 from fusing its own runs</text><text x="70" y="460" font-size="30" fill="#6b7280">(significant). Haiku only +2.6.</text><text x="70" y="560" font-size="24" fill="#9a9890">Claude Haiku 4.5 (n=44) vs Sonnet 4.6 (n=23) · trustedrouter.com</text><line x1="700" y1="520" x2="1140" y2="520" stroke="#e5e7eb" stroke-width="2"/><polyline points="700,481 749,492 798,447 847,405 896,434 944,426 993,425 1042,461 1091,443 1140,494" fill="none" stroke="#D85A30" stroke-width="5"/><text x="1146" y="500" font-size="25" font-weight="700" fill="#993C1D">Haiku</text><polyline points="700,339 749,283 798,250 847,236 896,229 944,244 993,213 1042,237 1091,209 1140,218" fill="none" stroke="#1D9E75" stroke-width="5"/><text x="1146" y="224" font-size="25" font-weight="700" fill="#0F6E56">Sonnet</text><text x="700" y="552" font-size="22" fill="#9a9890">1 run</text><text x="1070" y="552" font-size="22" fill="#9a9890">10 runs</text></svg>