<svg xmlns="http://www.w3.org/2000/svg" viewBox="0 0 760 500" font-family="-apple-system,Segoe UI,Roboto,sans-serif">
<rect width="760" height="500" rx="10" fill="#ffffff"/>
<text x="28" y="38" font-size="19" font-weight="600" fill="#1a1a1a">DRACO: TrustedRouter Fusion beats Frontier</text>
<text x="28" y="60" font-size="13" fill="#5F5E5A">Score out of 100, same judge (gemini-3.1-pro, reasoning high). Higher is better.</text>
<rect x="540" y="28" width="12" height="12" rx="2" fill="#1D9E75"/><text x="558" y="38" font-size="12" fill="#5F5E5A">TrustedRouter</text>
<rect x="540" y="46" width="12" height="12" rx="2" fill="#9a9890"/><text x="558" y="56" font-size="12" fill="#5F5E5A">OpenRouter</text>
<text x="288" y="101.0" font-size="12.5" text-anchor="end" fill="#3a3a3a">Frontier panel -> Opus fuser</text>
<rect x="300" y="86" width="353.3" height="22" rx="3" fill="#1D9E75"/>
<text x="660.3" y="101.0" font-size="12.5" font-weight="600" fill="#0F6E56">70.9</text>
<text x="288" y="138.0" font-size="12.5" text-anchor="end" fill="#3a3a3a">Fable 5 + GPT-5.5</text>
<rect x="300" y="123" width="311.1" height="22" rx="3" fill="#9a9890"/>
<text x="618.1" y="138.0" font-size="12.5" font-weight="600" fill="#5F5E5A">69.0</text>
<text x="288" y="175.0" font-size="12.5" text-anchor="end" fill="#3a3a3a">Opus + GPT-5.5 + Gemini</text>
<rect x="300" y="160" width="295.6" height="22" rx="3" fill="#9a9890"/>
<text x="602.6" y="175.0" font-size="12.5" font-weight="600" fill="#5F5E5A">68.3</text>
<text x="288" y="212.0" font-size="12.5" text-anchor="end" fill="#3a3a3a">Opus + GPT-5.5</text>
<rect x="300" y="197" width="280.0" height="22" rx="3" fill="#9a9890"/>
<text x="587.0" y="212.0" font-size="12.5" font-weight="600" fill="#5F5E5A">67.6</text>
<text x="288" y="249.0" font-size="12.5" text-anchor="end" fill="#3a3a3a">Opus + Opus</text>
<rect x="300" y="234" width="233.3" height="22" rx="3" fill="#9a9890"/>
<text x="540.3" y="249.0" font-size="12.5" font-weight="600" fill="#5F5E5A">65.5</text>
<text x="288" y="286.0" font-size="12.5" text-anchor="end" fill="#3a3a3a">Fable 5 (solo)</text>
<rect x="300" y="271" width="228.9" height="22" rx="3" fill="#9a9890"/>
<text x="535.9" y="286.0" font-size="12.5" font-weight="600" fill="#5F5E5A">65.3</text>
<text x="288" y="323.0" font-size="12.5" text-anchor="end" fill="#3a3a3a">Budget panel -> Opus fuser</text>
<rect x="300" y="308" width="215.6" height="22" rx="3" fill="#9a9890"/>
<text x="522.6" y="323.0" font-size="12.5" font-weight="600" fill="#5F5E5A">64.7</text>
<text x="288" y="360.0" font-size="12.5" text-anchor="end" fill="#3a3a3a">GPT-5.5 (solo)</text>
<rect x="300" y="345" width="177.8" height="22" rx="3" fill="#1D9E75"/>
<text x="484.8" y="360.0" font-size="12.5" font-weight="600" fill="#0F6E56">63.0</text>
<text x="288" y="397.0" font-size="12.5" text-anchor="end" fill="#3a3a3a">Budget panel -> Opus fuser</text>
<rect x="300" y="382" width="168.9" height="22" rx="3" fill="#1D9E75"/>
<text x="475.9" y="397.0" font-size="12.5" font-weight="600" fill="#0F6E56">62.6</text>
<text x="288" y="434.0" font-size="12.5" text-anchor="end" fill="#3a3a3a">Frontier panel -> GPT-5.5 fuser</text>
<rect x="300" y="419" width="160.0" height="22" rx="3" fill="#1D9E75"/>
<text x="467.0" y="434.0" font-size="12.5" font-weight="600" fill="#0F6E56">62.2</text>
<line x1="300" y1="80" x2="300" y2="447" stroke="#d8d8d2" stroke-width="1"/>
<text x="28" y="486" font-size="11.5" fill="#888780">Frontier panel = gpt-5.5 + opus-4.8 + gemini-3-flash + kimi-k2.6 + deepseek-v4-pro (closed + open weights). See README for the full-100 score.</text>
</svg>